<svg width="800" height="800" viewBox="0 0 800 800" fill="none" xmlns="http://www.w3.org/2000/svg">
<path d="M442.131 642.93C451.551 645.05 469.841 650.25 477.661 659.93C488.431 673.26 490.921 685.87 508.191 690.06C516.661 692.12 528.421 689.15 528.421 684.54C528.421 679.93 511.521 664.86 505.861 650.19C503.101 643.04 502.011 637.97 501.361 633.69" fill="#30446D"/>
<path d="M611.59 574.18C606.42 527.67 477.72 477.71 477.72 477.71C477.72 477.71 448.65 496.21 403.08 496.21C364.91 496.21 340.29 481.94 340.29 481.94C340.29 481.94 211.59 531.9 206.42 578.41C201.32 624.26 324.66 638.67 383.06 642.92L384.45 648.53C384.46 648.53 618.26 634.17 611.59 574.18ZM412.9 579.2L357.81 572.57C357.81 572.57 375.75 557.78 409.58 557.78C443.42 557.78 471.08 569.43 471.08 569.43L412.9 579.2Z" fill="#FFD101"/>
<path d="M381.74 637.54C381.74 637.54 351.14 642.37 340.37 655.7C329.6 669.03 327.11 681.64 309.84 685.83C301.37 687.89 289.61 684.92 289.61 680.31C289.61 675.7 306.51 660.63 312.17 645.96C319.09 628.02 315.5 623.14 320.89 611.1C326.27 599.05 340.01 603.11 371.21 595.06" fill="#30446D"/>
<path d="M263.61 372.25C240.7 413.02 234.2 456.3 187.93 521.55C173.26 542.24 149.52 546.04 140.29 546.73C138.06 546.9 136.27 548.63 136.05 550.85C135.79 553.51 137.86 555.84 140.53 555.87C156.07 556.06 168.11 551.1 168.11 551.1L144.42 589.19C142.95 591.55 143.77 594.65 146.2 595.98C148.45 597.21 151.27 596.47 152.63 594.29L149.66 599.08C148.13 601.55 148.93 604.8 151.44 606.27C153.84 607.68 156.92 606.94 158.41 604.6L164.92 594.42L161.93 599.09C160.62 601.14 161.3 603.87 163.42 605.06C165.34 606.14 167.77 605.56 169.01 603.73L176 593.36L175.76 593.72C174.55 595.53 174.97 597.97 176.72 599.26C178.47 600.55 180.94 600.24 182.3 598.55C259.31 503.26 306.34 398.62 306.34 398.62L263.61 372.25Z" fill="white"/>
<path d="M671.611 531C671.311 528.79 669.451 527.13 667.211 527.05C657.951 526.73 634.081 523.89 618.601 503.8C569.771 440.46 564.591 409.26 541.941 372.44L504.261 402.07C504.261 402.07 546.551 488.38 627.311 580.52C628.741 582.16 631.221 582.37 632.921 581.01C634.621 579.65 634.941 577.19 633.661 575.44H633.701L641.421 585.84C642.701 587.56 645.041 588.08 646.931 587.05C649.171 585.83 649.871 582.95 648.431 580.84L652.741 587.14C654.251 589.35 657.241 589.97 659.511 588.55C661.911 587.05 662.571 583.85 660.981 581.52L656.801 575.39C658.341 577.65 661.431 578.22 663.681 576.66C665.891 575.12 666.451 572.09 664.941 569.86L639.611 532.55C639.611 532.55 651.841 537.02 667.361 536.21C670.001 536.06 671.971 533.65 671.611 531Z" fill="white"/>
<path d="M325.19 308.45C325.19 308.45 330.98 272.94 338.74 234.04C349.88 178.17 374.58 166.48 400.73 166.48C426.88 166.48 451.58 178.18 462.72 234.04C470.48 272.93 475.23 305.26 475.23 305.26" fill="#30446D"/>
<path d="M438.85 223.69C435.95 223.69 433.33 224.97 431.47 227.03L431.12 214.33H394.76L390.01 197.23L385.95 214.33H370.5L370.22 224.94C368.58 223.7 366.61 222.98 364.49 222.98C358.83 222.98 354.24 228.13 354.24 234.48C354.24 240.83 358.83 245.98 364.49 245.98C366.18 245.98 367.77 245.52 369.17 244.71C369.06 247.76 369.17 250.66 369.17 254.77C369.17 266.17 377.14 275.83 386.88 281.13L382.63 300.93C385.75 305.78 392.41 312.68 405.05 312.68C416.28 312.68 422.49 306.6 425.62 301.85L419.86 280.29C428.69 274.85 435.57 265.59 435.57 254.76C435.57 250.78 435.34 247.42 434.98 244.44C436.2 244.99 437.46 245.25 438.86 245.25C444.49 245.25 449.06 240.42 449.06 234.46C449.05 228.52 444.49 223.69 438.85 223.69Z" fill="white"/>
<path d="M298.331 320.39C278.851 335.26 262.271 370.12 262.271 370.12C262.271 370.12 276.451 395.93 309.611 399L320.361 384.87L340.301 481.94C340.301 481.94 364.921 496.21 403.091 496.21C448.661 496.21 477.731 477.71 477.731 477.71L486.671 388.67L498.951 404.66C532.281 389.28 543.931 369.61 543.931 369.61C543.931 369.61 524.961 332.69 503.431 317.31C481.901 301.93 428.401 296.29 428.401 296.29C428.401 296.29 423.521 312.7 405.061 312.7C385.581 312.7 380.301 296.29 380.301 296.29C380.301 296.29 317.811 305.52 298.331 320.39Z" fill="#FFD101"/>
<path d="M282.71 390.22C289.71 394.47 298.62 397.99 309.61 399.01L328.07 374.74" stroke="#30446D" stroke-width="4" stroke-miterlimit="10" stroke-linecap="round" stroke-linejoin="round"/>
<path d="M530.671 347.65C523.351 336.87 513.671 324.65 503.411 317.32C481.881 301.94 428.381 296.3 428.381 296.3C428.381 296.3 427.681 298.65 425.811 301.57" stroke="#30446D" stroke-width="4" stroke-miterlimit="10" stroke-linecap="round" stroke-linejoin="round"/>
<path d="M476.75 375.76L498.94 404.65C504.81 401.94 510.01 399.09 514.6 396.25" stroke="#30446D" stroke-width="4" stroke-miterlimit="10" stroke-linecap="round" stroke-linejoin="round"/>
<path d="M482 435.11L486.66 388.67" stroke="#30446D" stroke-width="4" stroke-miterlimit="10" stroke-linecap="round" stroke-linejoin="round"/>
<path d="M403.091 496.21C448.661 496.21 477.731 477.71 477.731 477.71" stroke="#30446D" stroke-width="4" stroke-miterlimit="10" stroke-linecap="round" stroke-linejoin="round"/>
<path d="M326.54 414.96L340.3 481.94C340.3 481.94 347.09 485.87 359.06 489.61" stroke="#30446D" stroke-width="4" stroke-miterlimit="10" stroke-linecap="round" stroke-linejoin="round"/>
<path d="M593.39 603.13C539.34 639.01 384.46 648.52 384.46 648.52L369.08 586.48L522.38 560.84" stroke="#30446D" stroke-width="4" stroke-miterlimit="10" stroke-linecap="round" stroke-linejoin="round"/>
<path d="M477.73 477.71C477.73 477.71 531.1 498.43 570.49 525.6" stroke="#30446D" stroke-width="4" stroke-miterlimit="10" stroke-linecap="round" stroke-linejoin="round"/>
<path d="M379.22 575.14L295.65 565.08" stroke="#30446D" stroke-width="4" stroke-miterlimit="10" stroke-linecap="round" stroke-linejoin="round"/>
<path d="M340.3 481.94C340.3 481.94 271.2 508.77 232.23 541.4" stroke="#30446D" stroke-width="4" stroke-miterlimit="10" stroke-linecap="round" stroke-linejoin="round"/>
<path d="M398.181 558.36C401.761 557.99 405.561 557.78 409.591 557.78" stroke="#30446D" stroke-width="4" stroke-miterlimit="10" stroke-linecap="round" stroke-linejoin="round"/>
<path d="M357.811 572.57C357.811 572.57 366.761 565.19 383.951 560.86" stroke="#30446D" stroke-width="4" stroke-miterlimit="10" stroke-linecap="round" stroke-linejoin="round"/>
<path d="M381.74 637.54C381.74 637.54 351.14 642.37 340.37 655.7C329.6 669.03 327.11 681.64 309.84 685.83C301.37 687.89 289.61 684.92 289.61 680.31C289.61 675.7 306.51 660.63 312.17 645.96C319.09 628.02 315.5 623.14 320.89 611.1C326.27 599.05 340.01 603.11 371.21 595.06" stroke="#30446D" stroke-width="4" stroke-miterlimit="10" stroke-linecap="round" stroke-linejoin="round"/>
<path d="M392.48 283.64C380.39 279.39 369.16 268.31 369.16 254.78C369.16 250.66 369.05 247.77 369.16 244.72" stroke="#30446D" stroke-width="4" stroke-miterlimit="10" stroke-linecap="round" stroke-linejoin="round"/>
<path d="M434.971 244.45C435.331 247.43 435.561 250.79 435.561 254.77C435.561 272.14 417.851 285.49 402.761 285.49" stroke="#30446D" stroke-width="4" stroke-miterlimit="10" stroke-linecap="round" stroke-linejoin="round"/>
<path d="M431.471 227.03C433.331 224.97 435.951 223.69 438.851 223.69C444.481 223.69 449.051 228.52 449.051 234.48C449.051 240.44 444.481 245.27 438.851 245.27C437.441 245.27 436.191 245 434.971 244.46" stroke="#30446D" stroke-width="4" stroke-miterlimit="10" stroke-linecap="round" stroke-linejoin="round"/>
<path d="M369.17 244.72C367.77 245.53 366.17 245.99 364.49 245.99C358.83 245.99 354.24 240.84 354.24 234.49C354.24 228.14 358.83 222.99 364.49 222.99C366.61 222.99 368.58 223.71 370.22 224.95" stroke="#30446D" stroke-width="4" stroke-miterlimit="10" stroke-linecap="round" stroke-linejoin="round"/>
<path d="M370.221 224.94L370.501 214.33H385.951L390.011 197.23L394.761 214.33H431.121L431.471 227.03" stroke="#30446D" stroke-width="4" stroke-miterlimit="10" stroke-linecap="round" stroke-linejoin="round"/>
<path d="M401.51 233.27C401.51 233.27 397.96 246.98 396.92 252.31C395.88 257.64 402.37 258.68 402.37 258.68" stroke="#30446D" stroke-width="4" stroke-miterlimit="10" stroke-linecap="round" stroke-linejoin="round"/>
<path d="M415.061 264.19C413.021 267.83 409.351 270.26 405.271 270.77" stroke="#30446D" stroke-width="4" stroke-miterlimit="10" stroke-linecap="round" stroke-linejoin="round"/>
<path d="M412.381 237.7C413.261 235.59 415.341 234.11 417.771 234.11C420.201 234.11 422.281 235.59 423.161 237.7" stroke="#30446D" stroke-width="4" stroke-miterlimit="10" stroke-linecap="round" stroke-linejoin="round"/>
<path d="M379.23 237.7C380.11 235.59 382.19 234.11 384.62 234.11C387.05 234.11 389.13 235.59 390.01 237.7" stroke="#30446D" stroke-width="4" stroke-miterlimit="10" stroke-linecap="round" stroke-linejoin="round"/>
<path d="M386.881 281.14L382.631 300.94" stroke="#30446D" stroke-width="4" stroke-miterlimit="10" stroke-linecap="round" stroke-linejoin="round"/>
<path d="M419.851 280.3L425.621 301.86" stroke="#30446D" stroke-width="4" stroke-miterlimit="10" stroke-linecap="round" stroke-linejoin="round"/>
<path d="M510.091 413.23C524.221 439.44 563.921 508.18 627.311 580.52C628.741 582.16 631.221 582.37 632.921 581.01C634.621 579.65 634.941 577.19 633.661 575.44L617.761 553.71" stroke="#30446D" stroke-width="4" stroke-miterlimit="10" stroke-linecap="round" stroke-linejoin="round"/>
<path d="M631.091 571.94L641.411 585.83C642.691 587.55 645.031 588.07 646.921 587.04C649.161 585.82 649.861 582.94 648.421 580.83" stroke="#30446D" stroke-width="4" stroke-miterlimit="10" stroke-linecap="round" stroke-linejoin="round"/>
<path d="M618.601 503.8C634.091 523.89 657.951 526.74 667.211 527.05C669.441 527.13 671.301 528.78 671.611 531C671.971 533.65 670.001 536.05 667.331 536.19C651.811 537 639.581 532.53 639.581 532.53L664.911 569.84C666.421 572.07 665.861 575.1 663.651 576.64C661.401 578.2 658.311 577.63 656.771 575.37" stroke="#30446D" stroke-width="4" stroke-miterlimit="10" stroke-linecap="round" stroke-linejoin="round"/>
<path d="M607.891 489.48C608.871 490.84 609.881 492.21 610.901 493.6" stroke="#30446D" stroke-width="4" stroke-miterlimit="10" stroke-linecap="round" stroke-linejoin="round"/>
<path d="M541.94 372.44C561.77 404.66 568.21 432.59 602.25 481.52" stroke="#30446D" stroke-width="4" stroke-miterlimit="10" stroke-linecap="round" stroke-linejoin="round"/>
<path d="M241.07 516.45C224.25 542.77 204.52 571.05 182.29 598.56C180.92 600.25 178.46 600.56 176.71 599.27C174.96 597.98 174.54 595.54 175.75 593.73L190.77 571.38" stroke="#30446D" stroke-width="4" stroke-miterlimit="10" stroke-linecap="round" stroke-linejoin="round"/>
<path d="M306.341 398.62C306.341 398.62 289.981 435.01 260.771 484.41" stroke="#30446D" stroke-width="4" stroke-miterlimit="10" stroke-linecap="round" stroke-linejoin="round"/>
<path d="M162.99 559.33L144.42 589.18C142.95 591.54 143.77 594.64 146.2 595.97C148.45 597.2 151.27 596.46 152.63 594.28" stroke="#30446D" stroke-width="4" stroke-miterlimit="10" stroke-linecap="round" stroke-linejoin="round"/>
<path d="M263.61 372.25C240.7 413.02 234.2 456.3 187.93 521.55C173.26 542.24 149.52 546.04 140.29 546.73C138.06 546.9 136.27 548.63 136.05 550.85C135.79 553.51 137.86 555.84 140.53 555.87C156.07 556.06 168.11 551.1 168.11 551.1" stroke="#30446D" stroke-width="4" stroke-miterlimit="10" stroke-linecap="round" stroke-linejoin="round"/>
<path d="M161.931 599.08C160.621 601.13 161.301 603.86 163.421 605.05C165.341 606.13 167.771 605.55 169.011 603.72L176.011 593.34" stroke="#30446D" stroke-width="4" stroke-miterlimit="10" stroke-linecap="round" stroke-linejoin="round"/>
<path d="M442.131 642.93C451.551 645.05 469.841 650.25 477.661 659.93C488.431 673.26 490.921 685.87 508.191 690.06C516.661 692.12 528.421 689.15 528.421 684.54C528.421 679.93 511.521 664.86 505.861 650.19C503.101 643.04 502.011 637.97 501.361 633.69" stroke="#30446D" stroke-width="4" stroke-miterlimit="10" stroke-linecap="round" stroke-linejoin="round"/>
<path d="M369.12 232.03C365.6 227.96 359.56 231.78 361.29 236.24" stroke="#30446D" stroke-width="4" stroke-miterlimit="10" stroke-linecap="round" stroke-linejoin="round"/>
<path d="M433.2 233.72C436.16 228.79 443.48 231.48 441.75 237.09" stroke="#30446D" stroke-width="4" stroke-miterlimit="10" stroke-linecap="round" stroke-linejoin="round"/>
<path d="M640.531 569.3L652.721 587.14C654.231 589.35 657.221 589.97 659.491 588.55C661.891 587.05 662.551 583.85 660.961 581.52L635.511 544.23" stroke="#30446D" stroke-width="4" stroke-miterlimit="10" stroke-linecap="round" stroke-linejoin="round"/>
<path d="M627.181 549.77L635.321 561.68" stroke="#30446D" stroke-width="4" stroke-miterlimit="10" stroke-linecap="round" stroke-linejoin="round"/>
<path d="M162.711 578.02L149.661 599.08C148.131 601.55 148.931 604.8 151.441 606.27C153.841 607.68 156.921 606.94 158.411 604.6L180.831 569.58" stroke="#30446D" stroke-width="4" stroke-miterlimit="10" stroke-linecap="round" stroke-linejoin="round"/>
<path d="M171.36 564.07L166.49 571.93" stroke="#30446D" stroke-width="4" stroke-miterlimit="10" stroke-linecap="round" stroke-linejoin="round"/>
<path d="M325.19 308.45C325.19 308.45 330.98 272.94 338.74 234.04C349.88 178.17 374.58 166.48 400.73 166.48C426.88 166.48 451.58 178.18 462.72 234.04C470.48 272.93 475.23 305.26 475.23 305.26" stroke="#30446D" stroke-width="4" stroke-miterlimit="10" stroke-linecap="round" stroke-linejoin="round"/>
<path d="M212.19 730H492.49" stroke="#30446D" stroke-width="4" stroke-miterlimit="10" stroke-linecap="round" stroke-linejoin="round"/>
<path d="M528.641 730H595.491" stroke="#30446D" stroke-width="4" stroke-miterlimit="10" stroke-linecap="round" stroke-linejoin="round"/>
<path d="M309.61 399.01L328.06 374.74" stroke="#30446D" stroke-width="4" stroke-miterlimit="10" stroke-linecap="round" stroke-linejoin="round"/>
<path d="M408.151 312.54C407.161 312.65 406.131 312.7 405.051 312.7C385.571 312.7 380.291 296.29 380.291 296.29C380.291 296.29 317.811 305.52 298.331 320.39C278.851 335.26 262.271 370.12 262.271 370.12C262.271 370.12 264.771 374.66 270.121 380.16" stroke="#30446D" stroke-width="4" stroke-miterlimit="10" stroke-linecap="round" stroke-linejoin="round"/>
<path d="M649.17 393.85C684.57 372.78 708.38 333.4 708.38 288.3C708.38 284.19 708.18 280.12 707.79 276.11C707.79 276.11 676.98 272.74 649.17 251.74C621.36 272.74 590.55 276.11 590.55 276.11C590.16 280.12 589.96 284.18 589.96 288.3C589.96 333.4 613.77 372.78 649.17 393.85Z" fill="#FFD101"/>
<path d="M707.1 306.25C707.51 303.38 707.83 300.47 708.04 297.54" stroke="#30446D" stroke-width="4" stroke-miterlimit="10" stroke-linecap="round" stroke-linejoin="round"/>
<path d="M637.33 259.61C613.29 273.63 590.55 276.11 590.55 276.11C590.16 280.12 589.96 284.18 589.96 288.3C589.96 333.4 613.78 372.78 649.17 393.85C676.87 377.36 697.48 349.66 705.13 316.78" stroke="#30446D" stroke-width="4" stroke-miterlimit="10" stroke-linecap="round" stroke-linejoin="round"/>
<path d="M707.79 276.11C707.79 276.11 676.98 272.74 649.17 251.74C645.25 254.7 641.27 257.31 637.33 259.61" stroke="#30446D" stroke-width="4" stroke-miterlimit="10" stroke-linecap="round" stroke-linejoin="round"/>
<path d="M643.16 343.09L619.72 319.65L629.76 309.6L643.16 323L673.31 292.85L683.36 302.9L643.16 343.09Z" fill="white"/>
<path d="M626.38 326.31L643.16 343.09L683.36 302.9" stroke="#30446D" stroke-width="4" stroke-miterlimit="10" stroke-linecap="round" stroke-linejoin="round"/>
<path d="M553.01 109.47H533.27V89.74H513.53V109.47H493.8V129.21H513.53V148.95H533.27V129.21H553.01V109.47Z" fill="#FFD101"/>
<path d="M513.53 148.95V129.21H493.8V109.47" stroke="#30446D" stroke-width="4" stroke-miterlimit="10" stroke-linecap="round" stroke-linejoin="round"/>
<path d="M568.99 100.44C571.41 106.26 572.74 112.65 572.74 119.35C572.74 146.6 550.65 168.69 523.4 168.69C496.15 168.69 474.06 146.6 474.06 119.35C474.06 92.1 496.15 70 523.4 70C530.06 70 536.4 71.32 542.2 73.71" stroke="#30446D" stroke-width="4" stroke-miterlimit="10" stroke-linecap="round" stroke-linejoin="round"/>
<path d="M225.27 223.23C257.97 223.23 284.48 196.721 284.48 164.02C284.48 131.319 257.97 104.81 225.27 104.81C192.569 104.81 166.06 131.319 166.06 164.02C166.06 196.721 192.569 223.23 225.27 223.23Z" fill="#BCEBFF"/>
<path d="M225.269 211.39C251.431 211.39 272.639 190.182 272.639 164.02C272.639 137.858 251.431 116.65 225.269 116.65C199.108 116.65 177.899 137.858 177.899 164.02C177.899 190.182 199.108 211.39 225.269 211.39Z" fill="white"/>
<path d="M242.02 180.77L229.46 168.21" stroke="#30446D" stroke-width="4" stroke-miterlimit="10" stroke-linecap="round" stroke-linejoin="round"/>
<path d="M279.98 141.34C282.88 148.33 284.48 155.99 284.48 164.03C284.48 196.73 257.97 223.24 225.27 223.24C192.57 223.24 166.06 196.73 166.06 164.03C166.06 131.33 192.57 104.82 225.27 104.82C239.08 104.82 251.79 109.55 261.86 117.48" stroke="#30446D" stroke-width="4" stroke-miterlimit="10" stroke-linecap="round" stroke-linejoin="round"/>
<path d="M179.399 175.89C178.419 172.1 177.899 168.12 177.899 164.02C177.899 137.86 199.109 116.65 225.269 116.65C251.429 116.65 272.639 137.86 272.639 164.02C272.639 190.18 251.429 211.39 225.269 211.39C211.309 211.39 198.759 205.35 190.089 195.74" stroke="#30446D" stroke-width="4" stroke-miterlimit="10" stroke-linecap="round" stroke-linejoin="round"/>
<path d="M225.27 133.23V158.1" stroke="#30446D" stroke-width="4" stroke-miterlimit="10" stroke-linecap="round" stroke-linejoin="round"/>
<path d="M225.27 169.94C228.539 169.94 231.19 167.289 231.19 164.02C231.19 160.75 228.539 158.1 225.27 158.1C222 158.1 219.35 160.75 219.35 164.02C219.35 167.289 222 169.94 225.27 169.94Z" stroke="#30446D" stroke-width="4" stroke-miterlimit="10" stroke-linecap="round" stroke-linejoin="round"/>
<path d="M180.44 357.39C180.44 344.36 169.88 333.8 156.85 333.8C147.83 333.8 140 338.86 136.03 346.3C132.06 338.87 124.23 333.8 115.21 333.8C102.18 333.8 91.6201 344.36 91.6201 357.39C91.6201 364.24 94.5401 370.41 99.2101 374.72L136.03 408.73L172.85 374.72L172.82 374.71C177.5 370.41 180.44 364.25 180.44 357.39Z" fill="#FFD101"/>
<path d="M122.18 395.95L136.03 408.75L172.85 374.74L172.82 374.73C177.49 370.42 180.43 364.26 180.43 357.41C180.43 344.38 169.87 333.82 156.84 333.82C147.82 333.82 139.99 338.88 136.02 346.32C132.05 338.89 124.22 333.82 115.2 333.82C108.95 333.82 103.26 336.25 99.04 340.22" stroke="#30446D" stroke-width="4" stroke-miterlimit="10" stroke-linecap="round" stroke-linejoin="round"/>
</svg>
