<?xml version="1.0" standalone="no"?>
<!DOCTYPE svg PUBLIC "-//W3C//DTD SVG 1.0//EN" "http://www.w3.org/TR/2001/REC-SVG-20010904/DTD/svg10.dtd">
<svg xmlns="http://www.w3.org/2000/svg" xmlns:xlink="http://www.w3.org/1999/xlink" id="body_1" width="292" height="300">

<g transform="matrix(0.20277779 0 0 0.20277779 -0 0.04583045)">
    <path d="M-234.039 463.069C -230.467 468.258 -227.491 473.846 -225.097 479.615C -215.085 503.813 -214.461 530.475 -206.19 555.164C -202.357 566.534 -197.063 577.341 -189.105 586.625C -182.145 594.7 -173.505 601.517 -164.018 606.75C -144.657 617.405 -121.745 621.9 -99.5433 619.312C -88.7033 618.084 -78.0167 614.936 -68.3482 610.034C -56.5543 604.01 -46.792 595.239 -38.0544 585.641C -19.474 565.259 -4.59006 539.843 21.8952 527.868C 34.4035 522.216 48.2393 521.285 61.3035 525.816C 74.6435 530.473 85.8054 539.522 95.4419 549.238C 114.397 568.324 128.564 592.509 152.594 606.458C 165.292 613.857 179.805 617.169 194.646 616.52C 210.518 615.771 225.782 611.438 240.497 605.98C 270.507 594.881 299.68 581.056 327.888 566.353C 393.904 532.02 479.783 454.347 514.592 558.243C 518.424 569.613 523.718 580.421 531.676 589.704C 538.636 597.78 547.276 604.596 556.764 609.83C 576.124 620.485 599.037 624.979 621.238 622.392C 632.078 621.163 642.765 618.016 652.433 613.113C 664.227 607.089 673.989 598.319 682.727 588.72C 701.307 568.338 716.191 542.923 742.676 530.948C 755.185 525.296 769.021 524.365 782.085 528.896C 795.425 533.553 806.587 542.601 816.223 552.318C 835.178 571.403 849.346 595.589 873.375 609.537C 886.073 616.937 900.586 620.249 915.427 619.599C 931.299 618.851 946.563 614.518 961.278 609.059C 1051.35 575.748 1161.63 449.407 1237 537.318C 1243.96 545.393 1252.59 552.21 1262.08 557.443C 1281.44 568.098 1304.36 572.593 1326.56 570.005C 1337.4 568.777 1348.08 565.629 1357.75 560.726C 1369.55 554.702 1379.31 545.932 1388.05 536.334C 1406.63 515.951 1421.51 490.536 1448 478.561C 1460.5 472.909 1474.34 471.978 1487.4 476.509C 1500.74 481.166 1511.91 490.214 1521.54 499.931C 1540.5 519.016 1554.66 543.202 1578.69 557.151C 1591.39 564.55 1605.91 567.862 1620.75 567.213C 1636.62 566.464 1651.88 562.131 1666.6 556.673C 1696.61 545.574 1725.78 531.749 1753.99 517.046C 1782.25 502.345 1809.72 486.067 1836.18 468.527" stroke="#110F0D" stroke-width="7" fill="none" />
    <path d="M4.02147 487.102C 10.0304 487.496 14.5823 492.686 14.1885 498.695C 13.7947 504.704 8.60412 509.256 2.59525 508.862C -3.41363 508.468 -7.96549 503.278 -7.57165 497.269C -7.1778 491.26 -1.9874 486.708 4.02147 487.102z" stroke="none" fill="#110F0D" fill-rule="nonzero" />
    <path d="M47.573 473.851C 53.5819 474.245 58.1339 479.435 57.74 485.444C 57.3462 491.453 52.1556 496.005 46.1468 495.611C 40.1379 495.217 35.586 490.027 35.9799 484.018C 36.3737 478.009 41.5641 473.457 47.573 473.851z" stroke="none" fill="#110F0D" fill-rule="nonzero" />
    <path d="M89.5869 487.531C 95.5958 487.925 100.148 493.115 99.7538 499.124C 99.36 505.133 94.1696 509.685 88.1607 509.291C 82.1518 508.897 77.5999 503.707 77.9938 497.698C 78.3876 491.689 83.578 487.137 89.5869 487.531z" stroke="none" fill="#110F0D" fill-rule="nonzero" />
    <path d="M126.063 522.304C 132.072 522.698 136.624 527.889 136.23 533.898C 135.837 539.906 130.646 544.458 124.637 544.064C 118.628 543.671 114.077 538.48 114.47 532.471C 114.864 526.462 120.055 521.911 126.063 522.304z" stroke="none" fill="#110F0D" fill-rule="nonzero" />
    <path d="M162.422 559.744C 168.431 560.138 172.982 565.328 172.589 571.337C 172.195 577.346 167.004 581.898 160.996 581.504C 154.987 581.11 150.435 575.92 150.829 569.911C 151.222 563.902 156.413 559.35 162.422 559.744z" stroke="none" fill="#110F0D" fill-rule="nonzero" />
    <path d="M200.914 578.543C 206.923 578.937 211.475 584.128 211.081 590.137C 210.687 596.145 205.497 600.697 199.488 600.303C 193.479 599.91 188.927 594.719 189.321 588.71C 189.715 582.701 194.905 578.15 200.914 578.543z" stroke="none" fill="#110F0D" fill-rule="nonzero" />
    <path d="M240.169 564.839C 246.178 565.233 250.73 570.424 250.336 576.432C 249.942 582.441 244.752 586.993 238.743 586.599C 232.734 586.206 228.182 581.015 228.576 575.006C 228.97 568.997 234.16 564.445 240.169 564.839z" stroke="none" fill="#110F0D" fill-rule="nonzero" />
    <path d="M275.325 550.299C 281.334 550.693 285.886 555.883 285.492 561.892C 285.098 567.901 279.908 572.453 273.899 572.059C 267.89 571.665 263.338 566.475 263.732 560.466C 264.126 554.457 269.316 549.905 275.325 550.299z" stroke="none" fill="#110F0D" fill-rule="nonzero" />
    <path d="M312.507 530.882C 318.516 531.276 323.068 536.466 322.674 542.475C 322.28 548.484 317.09 553.036 311.081 552.642C 305.072 552.248 300.52 547.058 300.914 541.049C 301.308 535.04 306.498 530.488 312.507 530.882z" stroke="none" fill="#110F0D" fill-rule="nonzero" />
    <path d="M351.163 509.855C 357.172 510.249 361.724 515.439 361.33 521.448C 360.936 527.457 355.746 532.009 349.737 531.615C 343.728 531.221 339.176 526.031 339.57 520.022C 339.964 514.013 345.154 509.461 351.163 509.855z" stroke="none" fill="#110F0D" fill-rule="nonzero" />
    <path d="M383.612 486.257C 389.621 486.651 394.173 491.842 393.779 497.851C 393.385 503.86 388.195 508.411 382.186 508.018C 376.177 507.624 371.625 502.433 372.019 496.424C 372.413 490.416 377.603 485.864 383.612 486.257z" stroke="none" fill="#110F0D" fill-rule="nonzero" />
    <path d="M478.375 467.516C 484.383 467.91 488.935 473.101 488.541 479.109C 488.148 485.118 482.957 489.67 476.948 489.276C 470.939 488.883 466.388 483.692 466.781 477.683C 467.175 471.674 472.366 467.122 478.375 467.516z" stroke="none" fill="#110F0D" fill-rule="nonzero" />
    <path d="M429.9 471.004C 435.908 471.398 440.46 476.588 440.066 482.597C 439.673 488.606 434.482 493.158 428.473 492.764C 422.464 492.37 417.912 487.18 418.306 481.171C 418.7 475.162 423.891 470.61 429.9 471.004z" stroke="none" fill="#110F0D" fill-rule="nonzero" />
    <path d="M518.459 491.058C 524.468 491.452 529.02 496.642 528.626 502.651C 528.232 508.66 523.042 513.212 517.033 512.818C 511.024 512.424 506.472 507.234 506.866 501.225C 507.26 495.216 512.45 490.664 518.459 491.058z" stroke="none" fill="#110F0D" fill-rule="nonzero" />
    <path d="M540.505 523.65C 546.514 524.044 551.066 529.234 550.672 535.243C 550.278 541.252 545.088 545.804 539.079 545.41C 533.07 545.016 528.518 539.825 528.912 533.817C 529.306 527.808 534.496 523.256 540.505 523.65z" stroke="none" fill="#110F0D" fill-rule="nonzero" />
    <path d="M560.104 558.056C 566.113 558.45 570.665 563.641 570.271 569.65C 569.877 575.658 564.686 580.21 558.678 579.817C 552.669 579.423 548.117 574.232 548.511 568.223C 548.905 562.214 554.095 557.663 560.104 558.056z" stroke="none" fill="#110F0D" fill-rule="nonzero" />
    <path d="M591.884 581.992C 597.893 582.386 602.445 587.576 602.051 593.585C 601.657 599.594 596.467 604.146 590.458 603.752C 584.449 603.358 579.897 598.168 580.291 592.159C 580.685 586.15 585.875 581.598 591.884 581.992z" stroke="none" fill="#110F0D" fill-rule="nonzero" />
    <path d="M635.211 573.906C 641.22 574.3 645.772 579.49 645.378 585.499C 644.984 591.508 639.794 596.06 633.785 595.666C 627.776 595.272 623.224 590.082 623.618 584.073C 624.012 578.064 629.202 573.512 635.211 573.906z" stroke="none" fill="#110F0D" fill-rule="nonzero" />
    <path d="M664.627 542.768C 670.636 543.162 675.188 548.353 674.794 554.362C 674.4 560.37 669.209 564.922 663.201 564.529C 657.192 564.135 652.64 558.944 653.034 552.935C 653.427 546.927 658.618 542.375 664.627 542.768z" stroke="none" fill="#110F0D" fill-rule="nonzero" />
    <path d="M688.292 515.125C 694.301 515.519 698.853 520.709 698.459 526.718C 698.065 532.727 692.874 537.279 686.866 536.885C 680.857 536.491 676.305 531.3 676.699 525.292C 677.092 519.283 682.283 514.731 688.292 515.125z" stroke="none" fill="#110F0D" fill-rule="nonzero" />
    <path d="M724.803 490.315C 730.811 490.708 735.363 495.899 734.97 501.908C 734.576 507.917 729.385 512.469 723.376 512.075C 717.367 511.681 712.816 506.49 713.209 500.482C 713.603 494.473 718.794 489.921 724.803 490.315z" stroke="none" fill="#110F0D" fill-rule="nonzero" />
    <path d="M768.354 477.064C 774.363 477.457 778.915 482.648 778.521 488.657C 778.127 494.666 772.937 499.217 766.928 498.824C 760.919 498.43 756.367 493.239 756.761 487.23C 757.155 481.222 762.345 476.67 768.354 477.064z" stroke="none" fill="#110F0D" fill-rule="nonzero" />
    <path d="M810.368 490.743C 816.377 491.137 820.929 496.328 820.535 502.337C 820.141 508.345 814.951 512.897 808.942 512.504C 802.933 512.11 798.381 506.919 798.775 500.91C 799.169 494.901 804.359 490.35 810.368 490.743z" stroke="none" fill="#110F0D" fill-rule="nonzero" />
    <path d="M846.844 525.517C 852.853 525.911 857.405 531.101 857.011 537.11C 856.618 543.119 851.427 547.671 845.418 547.277C 839.409 546.883 834.857 541.693 835.251 535.684C 835.645 529.675 840.836 525.123 846.844 525.517z" stroke="none" fill="#110F0D" fill-rule="nonzero" />
    <path d="M883.203 562.957C 889.212 563.35 893.764 568.541 893.37 574.55C 892.976 580.559 887.786 585.111 881.777 584.717C 875.768 584.323 871.216 579.132 871.61 573.123C 872.004 567.115 877.194 562.563 883.203 562.957z" stroke="none" fill="#110F0D" fill-rule="nonzero" />
    <path d="M921.696 581.756C 927.704 582.15 932.256 587.34 931.863 593.349C 931.469 599.358 926.278 603.91 920.269 603.516C 914.26 603.122 909.709 597.932 910.102 591.923C 910.496 585.914 915.687 581.362 921.696 581.756z" stroke="none" fill="#110F0D" fill-rule="nonzero" />
    <path d="M960.95 568.052C 966.959 568.446 971.511 573.636 971.117 579.645C 970.723 585.654 965.533 590.206 959.524 589.812C 953.515 589.418 948.963 584.228 949.357 578.219C 949.751 572.21 954.942 567.658 960.95 568.052z" stroke="none" fill="#110F0D" fill-rule="nonzero" />
    <path d="M996.106 553.511C 1002.12 553.905 1006.67 559.095 1006.27 565.104C 1005.88 571.113 1000.69 575.665 994.68 575.271C 988.671 574.877 984.119 569.687 984.513 563.678C 984.907 557.669 990.097 553.117 996.106 553.511z" stroke="none" fill="#110F0D" fill-rule="nonzero" />
    <path d="M1033.29 534.095C 1039.3 534.489 1043.85 539.679 1043.46 545.688C 1043.06 551.697 1037.87 556.249 1031.86 555.855C 1025.85 555.461 1021.3 550.27 1021.7 544.262C 1022.09 538.253 1027.28 533.701 1033.29 534.095z" stroke="none" fill="#110F0D" fill-rule="nonzero" />
    <path d="M1069.33 510.037C 1075.34 510.431 1079.89 515.622 1079.5 521.63C 1079.11 527.639 1073.92 532.191 1067.91 531.797C 1061.9 531.403 1057.35 526.213 1057.74 520.204C 1058.13 514.195 1063.32 509.643 1069.33 510.037z" stroke="none" fill="#110F0D" fill-rule="nonzero" />
    <path d="M1104.39 489.47C 1110.4 489.864 1114.95 495.054 1114.56 501.063C 1114.17 507.072 1108.98 511.624 1102.97 511.23C 1096.96 510.836 1092.41 505.646 1092.8 499.637C 1093.19 493.628 1098.38 489.076 1104.39 489.47z" stroke="none" fill="#110F0D" fill-rule="nonzero" />
    <path d="M1151.84 469.354C 1157.85 469.748 1162.4 474.938 1162.01 480.947C 1161.62 486.956 1156.42 491.508 1150.42 491.114C 1144.41 490.72 1139.86 485.529 1140.25 479.521C 1140.64 473.512 1145.83 468.96 1151.84 469.354z" stroke="none" fill="#110F0D" fill-rule="nonzero" />
    <path d="M1193.6 470.33C 1199.61 470.724 1204.16 475.915 1203.77 481.924C 1203.38 487.932 1198.19 492.484 1192.18 492.09C 1186.17 491.697 1181.62 486.506 1182.01 480.497C 1182.4 474.488 1187.59 469.937 1193.6 470.33z" stroke="none" fill="#110F0D" fill-rule="nonzero" />
    <path d="M1233.22 481.074C 1239.23 481.468 1243.78 486.659 1243.39 492.668C 1242.99 498.676 1237.8 503.228 1231.8 502.834C 1225.79 502.441 1221.23 497.25 1221.63 491.241C 1222.02 485.232 1227.21 480.681 1233.22 481.074z" stroke="none" fill="#110F0D" fill-rule="nonzero" />
    <path d="M1265.42 503.409C 1271.43 503.803 1275.98 508.994 1275.59 515.002C 1275.2 521.011 1270.01 525.563 1264 525.169C 1257.99 524.776 1253.44 519.585 1253.83 513.576C 1254.22 507.567 1259.41 503.015 1265.42 503.409z" stroke="none" fill="#110F0D" fill-rule="nonzero" />
    <path d="M1297.2 527.345C 1303.21 527.739 1307.76 532.929 1307.37 538.938C 1306.98 544.947 1301.79 549.499 1295.78 549.105C 1289.77 548.711 1285.22 543.521 1285.61 537.512C 1286 531.503 1291.19 526.951 1297.2 527.345z" stroke="none" fill="#110F0D" fill-rule="nonzero" />
    <path d="M1340.53 519.259C 1346.54 519.653 1351.09 524.843 1350.7 530.852C 1350.3 536.861 1345.11 541.413 1339.1 541.019C 1333.09 540.625 1328.54 535.435 1328.94 529.426C 1329.33 523.417 1334.52 518.865 1340.53 519.259z" stroke="none" fill="#110F0D" fill-rule="nonzero" />
    <path d="M1369.95 488.121C 1375.95 488.515 1380.51 493.706 1380.11 499.715C 1379.72 505.723 1374.53 510.275 1368.52 509.881C 1362.51 509.488 1357.96 504.297 1358.35 498.288C 1358.75 492.279 1363.94 487.728 1369.95 488.121z" stroke="none" fill="#110F0D" fill-rule="nonzero" />
    <path d="M1393.61 460.478C 1399.62 460.871 1404.17 466.062 1403.78 472.071C 1403.38 478.08 1398.19 482.631 1392.18 482.238C 1386.18 481.844 1381.62 476.653 1382.02 470.644C 1382.41 464.636 1387.6 460.084 1393.61 460.478z" stroke="none" fill="#110F0D" fill-rule="nonzero" />
    <path d="M1430.12 435.668C 1436.13 436.061 1440.68 441.252 1440.29 447.261C 1439.89 453.27 1434.7 457.822 1428.7 457.428C 1422.69 457.034 1418.13 451.843 1418.53 445.835C 1418.92 439.826 1424.11 435.274 1430.12 435.668z" stroke="none" fill="#110F0D" fill-rule="nonzero" />
</g>
</svg>