<svg width="1434" height="225" viewBox="0 0 1434 225" fill="none" xmlns="http://www.w3.org/2000/svg">
<g clip-path="url(#clip0_1120_20958)">
<path d="M105.484 201.595C135.495 190.686 164.667 177.098 192.876 162.646C258.891 128.9 344.771 52.5549 379.579 154.675C383.411 165.851 388.705 176.474 396.664 185.599C403.624 193.536 412.263 200.236 421.751 205.38C441.112 215.853 464.024 220.271 486.225 217.727C497.065 216.52 507.752 213.426 517.421 208.607C529.214 202.686 538.977 194.066 547.714 184.632C566.295 164.598 581.179 139.616 607.664 127.846C620.173 122.291 634.008 121.376 647.073 125.829C660.413 130.407 671.574 139.301 681.211 148.851C700.166 167.61 714.333 191.382 738.363 205.093C751.061 212.365 765.574 215.621 780.415 214.983C796.287 214.247 811.551 209.988 826.266 204.623C916.339 171.881 1026.62 47.6997 1101.98 134.107C1108.94 142.044 1117.58 148.745 1127.07 153.889C1146.43 164.361 1169.34 168.779 1191.54 166.236C1202.39 165.028 1213.07 161.935 1222.74 157.116C1234.53 151.195 1244.3 142.575 1253.03 133.14C1271.61 113.106 1286.5 88.1253 1312.98 76.355C1325.49 70.7999 1339.33 69.8847 1352.39 74.338C1365.73 78.9155 1376.89 87.8093 1386.53 97.3596C1403.52 114.172 1416.66 135.011 1436.5 149.024L1436.5 0.491211L-3.66504 0.491402L-3.66364 185.599C2.68633 191.831 9.58847 197.505 17.5819 202.065C30.2791 209.338 44.7925 212.594 59.6336 211.955C75.5059 211.22 90.7694 206.961 105.484 201.595Z" fill="#FEFBF3"/>
<path d="M-3.99365 185.278C2.44642 191.637 9.44797 197.428 17.5788 202.067C30.2762 209.339 44.7894 212.595 59.6305 211.957C75.5027 211.221 90.7664 206.962 105.481 201.597C135.492 190.688 164.665 177.099 192.873 162.647C258.888 128.901 344.768 52.556 379.576 154.676C383.409 165.852 388.702 176.475 396.661 185.6C403.621 193.537 412.26 200.237 421.748 205.381C441.109 215.854 464.021 220.272 486.222 217.728C497.062 216.521 507.749 213.427 517.418 208.608C529.211 202.687 538.974 194.067 547.711 184.633C566.292 164.599 581.176 139.618 607.661 127.847C620.169 122.292 634.005 121.377 647.069 125.83C660.409 130.408 671.571 139.302 681.208 148.852C700.163 167.611 714.33 191.383 738.36 205.094C751.057 212.366 765.571 215.622 780.412 214.984C796.284 214.248 811.548 209.989 826.262 204.624C916.336 171.882 1026.62 47.7009 1101.98 134.108C1108.94 142.046 1117.58 148.746 1127.07 153.89C1146.43 164.362 1169.34 168.78 1191.54 166.237C1202.38 165.03 1213.07 161.936 1222.74 157.117C1234.53 151.196 1244.29 142.576 1253.03 133.141C1271.61 113.107 1286.49 88.1263 1312.98 76.356C1325.49 70.8009 1339.32 69.8858 1352.39 74.339C1365.73 78.9166 1376.89 87.8103 1386.53 97.3606C1403.51 114.173 1416.66 135.012 1436.5 149.026" stroke="#110F0D" stroke-width="7"/>
<path d="M26.6935 156.129C32.7153 156.129 37.5969 160.927 37.5969 166.845C37.5969 172.764 32.7153 177.562 26.6935 177.562C20.6718 177.562 15.79 172.764 15.79 166.845C15.79 160.927 20.6718 156.129 26.6935 156.129Z" fill="#110F0D"/>
<path d="M65.1861 174.607C71.2078 174.607 76.0896 179.405 76.0896 185.324C76.0896 191.242 71.2078 196.041 65.1861 196.041C59.1643 196.041 54.2827 191.242 54.2827 185.324C54.2827 179.405 59.1643 174.607 65.1861 174.607Z" fill="#110F0D"/>
<path d="M104.441 161.137C110.463 161.137 115.344 165.935 115.344 171.854C115.344 177.773 110.463 182.571 104.441 182.571C98.4192 182.571 93.5376 177.773 93.5376 171.854C93.5376 165.935 98.4192 161.137 104.441 161.137Z" fill="#110F0D"/>
<path d="M139.597 146.845C145.618 146.845 150.5 151.643 150.5 157.562C150.5 163.481 145.618 168.279 139.597 168.279C133.575 168.279 128.693 163.481 128.693 157.562C128.693 151.643 133.575 146.845 139.597 146.845Z" fill="#110F0D"/>
<path d="M176.779 127.76C182.801 127.76 187.682 132.558 187.682 138.477C187.682 144.396 182.801 149.194 176.779 149.194C170.757 149.194 165.875 144.396 165.875 138.477C165.875 132.558 170.757 127.76 176.779 127.76Z" fill="#110F0D"/>
<path d="M215.435 107.092C221.457 107.092 226.338 111.891 226.338 117.809C226.338 123.728 221.457 128.526 215.435 128.526C209.413 128.526 204.532 123.728 204.532 117.809C204.532 111.891 209.413 107.092 215.435 107.092Z" fill="#110F0D"/>
<path d="M247.884 83.8983C253.906 83.8983 258.787 88.6964 258.787 94.6153C258.787 100.534 253.906 105.332 247.884 105.332C241.862 105.332 236.98 100.534 236.98 94.6153C236.98 88.6964 241.862 83.8983 247.884 83.8983Z" fill="#110F0D"/>
<path d="M342.646 65.4774C348.668 65.4774 353.549 70.2755 353.549 76.1944C353.549 82.1132 348.668 86.9114 342.646 86.9114C336.624 86.9114 331.743 82.1132 331.743 76.1944C331.743 70.2755 336.624 65.4774 342.646 65.4774Z" fill="#110F0D"/>
<path d="M294.171 68.9058C300.193 68.9058 305.074 73.704 305.074 79.6228C305.074 85.5417 300.193 90.3398 294.171 90.3398C288.149 90.3398 283.268 85.5417 283.268 79.6228C283.268 73.704 288.149 68.9058 294.171 68.9058Z" fill="#110F0D"/>
<path d="M382.731 88.6168C388.753 88.6168 393.634 93.4149 393.634 99.3338C393.634 105.253 388.753 110.051 382.731 110.051C376.709 110.051 371.828 105.253 371.828 99.3338C371.828 93.4149 376.709 88.6168 382.731 88.6168Z" fill="#110F0D"/>
<path d="M404.777 120.651C410.799 120.651 415.68 125.45 415.68 131.368C415.68 137.287 410.799 142.085 404.777 142.085C398.755 142.085 393.874 137.287 393.874 131.368C393.874 125.45 398.755 120.651 404.777 120.651Z" fill="#110F0D"/>
<path d="M424.376 154.47C430.397 154.47 435.279 159.268 435.279 165.187C435.279 171.106 430.397 175.904 424.376 175.904C418.354 175.904 413.472 171.106 413.472 165.187C413.472 159.268 418.354 154.47 424.376 154.47Z" fill="#110F0D"/>
<path d="M456.156 177.997C462.178 177.997 467.059 182.795 467.059 188.714C467.059 194.632 462.178 199.431 456.156 199.431C450.134 199.431 445.252 194.632 445.252 188.714C445.252 182.795 450.134 177.997 456.156 177.997Z" fill="#110F0D"/>
<path d="M499.483 170.048C505.505 170.048 510.386 174.847 510.386 180.765C510.386 186.684 505.505 191.482 499.483 191.482C493.461 191.482 488.58 186.684 488.58 180.765C488.58 174.847 493.461 170.048 499.483 170.048Z" fill="#110F0D"/>
<path d="M528.897 139.443C534.919 139.443 539.801 144.241 539.801 150.16C539.801 156.079 534.919 160.877 528.897 160.877C522.876 160.877 517.994 156.079 517.994 150.16C517.994 144.241 522.876 139.443 528.897 139.443Z" fill="#110F0D"/>
<path d="M552.563 112.272C558.584 112.272 563.466 117.07 563.466 122.989C563.466 128.908 558.584 133.706 552.563 133.706C546.541 133.706 541.659 128.908 541.659 122.989C541.659 117.07 546.541 112.272 552.563 112.272Z" fill="#110F0D"/>
<path d="M589.074 87.8861C595.096 87.8861 599.978 92.6842 599.978 98.6031C599.978 104.522 595.096 109.32 589.074 109.32C583.052 109.32 578.171 104.522 578.171 98.6031C578.171 92.6842 583.052 87.8861 589.074 87.8861Z" fill="#110F0D"/>
<path d="M632.625 74.8614C638.647 74.8614 643.529 79.6596 643.529 85.5784C643.529 91.4973 638.647 96.2954 632.625 96.2954C626.603 96.2954 621.722 91.4973 621.722 85.5784C621.722 79.6596 626.603 74.8614 632.625 74.8614Z" fill="#110F0D"/>
<path d="M674.64 88.3077C680.661 88.3077 685.543 93.1059 685.543 99.0247C685.543 104.944 680.661 109.742 674.64 109.742C668.618 109.742 663.736 104.944 663.736 99.0247C663.736 93.1059 668.618 88.3077 674.64 88.3077Z" fill="#110F0D"/>
<path d="M711.116 122.486C717.138 122.486 722.02 127.285 722.02 133.203C722.02 139.122 717.138 143.92 711.116 143.92C705.094 143.92 700.213 139.122 700.213 133.203C700.213 127.285 705.094 122.486 711.116 122.486Z" fill="#110F0D"/>
<path d="M747.474 159.286C753.496 159.286 758.377 164.084 758.377 170.003C758.377 175.922 753.496 180.72 747.474 180.72C741.452 180.72 736.57 175.922 736.57 170.003C736.57 164.084 741.452 159.286 747.474 159.286Z" fill="#110F0D"/>
<path d="M785.967 177.764C791.989 177.764 796.87 182.562 796.87 188.481C796.87 194.4 791.989 199.198 785.967 199.198C779.945 199.198 775.063 194.4 775.063 188.481C775.063 182.562 779.945 177.764 785.967 177.764Z" fill="#110F0D"/>
<path d="M825.222 164.295C831.243 164.295 836.125 169.093 836.125 175.012C836.125 180.93 831.243 185.729 825.222 185.729C819.2 185.729 814.318 180.93 814.318 175.012C814.318 169.093 819.2 164.295 825.222 164.295Z" fill="#110F0D"/>
<path d="M860.377 150.002C866.399 150.002 871.28 154.8 871.28 160.719C871.28 166.638 866.399 171.436 860.377 171.436C854.355 171.436 849.474 166.638 849.474 160.719C849.474 154.8 854.355 150.002 860.377 150.002Z" fill="#110F0D"/>
<path d="M897.56 130.918C903.581 130.918 908.463 135.716 908.463 141.635C908.463 147.553 903.581 152.352 897.56 152.352C891.538 152.352 886.656 147.553 886.656 141.635C886.656 135.716 891.538 130.918 897.56 130.918Z" fill="#110F0D"/>
<path d="M933.605 107.272C939.626 107.272 944.508 112.07 944.508 117.989C944.508 123.907 939.626 128.706 933.605 128.706C927.583 128.706 922.701 123.907 922.701 117.989C922.701 112.07 927.583 107.272 933.605 107.272Z" fill="#110F0D"/>
<path d="M968.664 87.0557C974.686 87.0557 979.567 91.8539 979.567 97.7727C979.567 103.692 974.686 108.49 968.664 108.49C962.642 108.49 957.761 103.692 957.761 97.7727C957.761 91.8539 962.642 87.0557 968.664 87.0557Z" fill="#110F0D"/>
<path d="M1016.11 67.2833C1022.14 67.2833 1027.02 72.0814 1027.02 78.0003C1027.02 83.9191 1022.14 88.7173 1016.11 88.7173C1010.09 88.7173 1005.21 83.9191 1005.21 78.0003C1005.21 72.0814 1010.09 67.2833 1016.11 67.2833Z" fill="#110F0D"/>
<path d="M1057.88 68.2435C1063.9 68.2435 1068.78 73.0417 1068.78 78.9605C1068.78 84.8793 1063.9 89.6775 1057.88 89.6775C1051.85 89.6775 1046.97 84.8793 1046.97 78.9605C1046.97 73.0417 1051.85 68.2435 1057.88 68.2435Z" fill="#110F0D"/>
<path d="M1097.49 78.804C1103.52 78.804 1108.4 83.6022 1108.4 89.521C1108.4 95.4399 1103.52 100.238 1097.49 100.238C1091.47 100.238 1086.59 95.4399 1086.59 89.521C1086.59 83.6022 1091.47 78.804 1097.49 78.804Z" fill="#110F0D"/>
<path d="M1129.69 100.757C1135.72 100.757 1140.6 105.555 1140.6 111.474C1140.6 117.393 1135.72 122.191 1129.69 122.191C1123.67 122.191 1118.79 117.393 1118.79 111.474C1118.79 105.555 1123.67 100.757 1129.69 100.757Z" fill="#110F0D"/>
<path d="M1161.47 124.284C1167.5 124.284 1172.38 129.082 1172.38 135.001C1172.38 140.919 1167.5 145.718 1161.47 145.718C1155.45 145.718 1150.57 140.919 1150.57 135.001C1150.57 129.082 1155.45 124.284 1161.47 124.284Z" fill="#110F0D"/>
<path d="M1204.8 116.336C1210.82 116.336 1215.7 121.134 1215.7 127.053C1215.7 132.971 1210.82 137.77 1204.8 137.77C1198.78 137.77 1193.9 132.971 1193.9 127.053C1193.9 121.134 1198.78 116.336 1204.8 116.336Z" fill="#110F0D"/>
<path d="M1234.22 85.7303C1240.24 85.7303 1245.12 90.5285 1245.12 96.4473C1245.12 102.366 1240.24 107.164 1234.22 107.164C1228.2 107.164 1223.31 102.366 1223.31 96.4473C1223.31 90.5285 1228.2 85.7303 1234.22 85.7303Z" fill="#110F0D"/>
<path d="M1257.88 58.5592C1263.9 58.5592 1268.79 63.3573 1268.79 69.2762C1268.79 75.195 1263.9 79.9932 1257.88 79.9932C1251.86 79.9932 1246.98 75.195 1246.98 69.2762C1246.98 63.3573 1251.86 58.5592 1257.88 58.5592Z" fill="#110F0D"/>
<path d="M1294.39 34.1732C1300.41 34.1732 1305.3 38.9713 1305.3 44.8902C1305.3 50.809 1300.41 55.6072 1294.39 55.6072C1288.37 55.6072 1283.49 50.809 1283.49 44.8902C1283.49 38.9713 1288.37 34.1732 1294.39 34.1732Z" fill="#110F0D"/>
<path d="M1337.94 21.1486C1343.97 21.1486 1348.85 25.9467 1348.85 31.8656C1348.85 37.7844 1343.97 42.5825 1337.94 42.5825C1331.92 42.5825 1327.04 37.7844 1327.04 31.8656C1327.04 25.9467 1331.92 21.1486 1337.94 21.1486Z" fill="#110F0D"/>
<path d="M1379.96 34.5946C1385.98 34.5946 1390.86 39.3927 1390.86 45.3116C1390.86 51.2304 1385.98 56.0286 1379.96 56.0286C1373.94 56.0286 1369.05 51.2304 1369.05 45.3116C1369.05 39.3927 1373.94 34.5946 1379.96 34.5946Z" fill="#110F0D"/>
<path d="M1416.43 68.7735C1422.46 68.7735 1427.34 73.5717 1427.34 79.4905C1427.34 85.4094 1422.46 90.2075 1416.43 90.2075C1410.41 90.2075 1405.53 85.4094 1405.53 79.4905C1405.53 73.5717 1410.41 68.7735 1416.43 68.7735Z" fill="#110F0D"/>
</g>
<defs>
<clipPath id="clip0_1120_20958">
<rect width="1434" height="225" fill="white"/>
</clipPath>
</defs>
</svg>
