<svg width="768" height="768" viewBox="0 0 768 768" fill="none" xmlns="http://www.w3.org/2000/svg">
<path d="M416.064 616.576L234.656 464.352C221.12 452.992 219.36 432.8 230.72 419.264L465.216 139.808C476.576 126.272 496.768 124.512 510.304 135.872L691.712 288.096C705.248 299.456 707.008 319.648 695.648 333.184L461.152 612.64C449.792 626.176 429.6 627.936 416.064 616.576Z" fill="white"/>
<path d="M594.496 360.928C617.471 360.928 636.096 342.303 636.096 319.328C636.096 296.353 617.471 277.728 594.496 277.728C571.521 277.728 552.896 296.353 552.896 319.328C552.896 342.303 571.521 360.928 594.496 360.928Z" stroke="#30446D" stroke-width="4" stroke-miterlimit="10" stroke-linecap="round" stroke-linejoin="round"/>
<path d="M414.144 376.704C437.119 376.704 455.744 358.079 455.744 335.104C455.744 312.129 437.119 293.504 414.144 293.504C391.169 293.504 372.544 312.129 372.544 335.104C372.544 358.079 391.169 376.704 414.144 376.704Z" stroke="#30446D" stroke-width="4" stroke-miterlimit="10" stroke-linecap="round" stroke-linejoin="round"/>
<path d="M485.472 449.248C467.872 434.464 465.568 408.256 480.352 390.656C495.136 373.056 521.344 370.752 538.944 385.536C556.544 400.32 558.848 426.528 544.064 444.128C535.84 453.92 524.064 458.976 512.192 458.976" stroke="#30446D" stroke-width="4" stroke-miterlimit="10" stroke-linecap="round" stroke-linejoin="round"/>
<path d="M331.872 474.752C354.847 474.752 373.472 456.127 373.472 433.152C373.472 410.177 354.847 391.552 331.872 391.552C308.897 391.552 290.272 410.177 290.272 433.152C290.272 456.127 308.897 474.752 331.872 474.752Z" stroke="#30446D" stroke-width="4" stroke-miterlimit="10" stroke-linecap="round" stroke-linejoin="round"/>
<path d="M429.92 557.024C452.895 557.024 471.52 538.399 471.52 515.424C471.52 492.449 452.895 473.824 429.92 473.824C406.945 473.824 388.32 492.449 388.32 515.424C388.32 538.399 406.945 557.024 429.92 557.024Z" stroke="#30446D" stroke-width="4" stroke-miterlimit="10" stroke-linecap="round" stroke-linejoin="round"/>
<path d="M659.904 375.776L461.152 612.64" stroke="#30446D" stroke-width="4" stroke-miterlimit="10" stroke-linecap="round" stroke-linejoin="round"/>
<path d="M354.432 564.896L234.656 464.384C221.12 453.024 219.36 432.832 230.72 419.296L465.216 139.84C476.576 126.304 496.768 124.544 510.304 135.904L691.712 288.128C705.248 299.488 707.008 319.68 695.648 333.216" stroke="#30446D" stroke-width="4" stroke-miterlimit="10" stroke-linecap="round" stroke-linejoin="round"/>
<path d="M461.152 612.64C449.792 626.176 429.6 627.936 416.064 616.576" stroke="#30446D" stroke-width="4" stroke-miterlimit="10" stroke-linecap="round" stroke-linejoin="round"/>
<path d="M496.416 278.656C519.391 278.656 538.016 260.031 538.016 237.056C538.016 214.081 519.391 195.456 496.416 195.456C473.441 195.456 454.816 214.081 454.816 237.056C454.816 260.031 473.441 278.656 496.416 278.656Z" stroke="#30446D" stroke-width="4" stroke-miterlimit="10" stroke-linecap="round" stroke-linejoin="round"/>
<path d="M240.864 88C143.648 88 64.8638 103.744 64.8638 123.2V251.2C64.8638 256.448 70.6238 261.408 80.8958 265.888H80.8638V648C80.8638 665.664 152.512 680 240.864 680C329.216 680 400.864 665.664 400.864 648V265.888H400.832C411.104 261.408 416.864 256.448 416.864 251.2V123.2C416.864 103.744 338.08 88 240.864 88Z" fill="white"/>
<path d="M240.864 344C152.512 344 80.8638 329.664 80.8638 312V571.2C80.8638 588.864 152.512 603.2 240.864 603.2C246.976 603.2 252.992 603.136 258.912 603.008V343.808C252.992 343.904 246.976 344 240.864 344Z" fill="white"/>
<path d="M208.864 445.76C189.184 444.96 170.816 443.424 154.464 441.344V386.944C131.808 384.032 113.088 380 100.16 375.264V429.664C87.8718 425.12 80.8638 419.936 80.8638 414.432V468.832C80.8638 474.336 87.8718 479.552 100.16 484.064V538.464C113.056 543.2 131.808 547.232 154.464 550.144V495.744C170.816 497.856 189.184 499.36 208.864 500.16V445.76Z" fill="#FFD101"/>
<path d="M240.864 88C143.648 88 64.8638 103.744 64.8638 123.2V251.2C64.8638 270.656 143.648 286.4 240.864 286.4C338.08 286.4 416.864 270.656 416.864 251.2V123.2C416.864 103.744 338.08 88 240.864 88Z" fill="#FAF0D3"/>
<path d="M400.864 573.344V265.888" stroke="#30446D" stroke-width="4" stroke-miterlimit="10" stroke-linecap="round" stroke-linejoin="round"/>
<path d="M80.8638 265.888V648C80.8638 665.664 152.512 680 240.864 680C318.176 680 382.688 669.024 397.6 654.464" stroke="#30446D" stroke-width="4" stroke-miterlimit="10" stroke-linecap="round" stroke-linejoin="round"/>
<path d="M379.424 101.504C402.88 107.488 416.864 115.008 416.864 123.2" stroke="#30446D" stroke-width="4" stroke-miterlimit="10" stroke-linecap="round" stroke-linejoin="round"/>
<path d="M416.864 123.2C416.864 142.656 338.08 158.4 240.864 158.4C143.648 158.4 64.8638 142.656 64.8638 123.2C64.8638 103.744 143.648 88 240.864 88" stroke="#30446D" stroke-width="4" stroke-miterlimit="10" stroke-linecap="round" stroke-linejoin="round"/>
<path d="M416.864 123.2V251.2C416.864 270.656 338.08 286.4 240.864 286.4C143.648 286.4 64.8638 270.656 64.8638 251.2V123.2" stroke="#30446D" stroke-width="4" stroke-miterlimit="10" stroke-linecap="round" stroke-linejoin="round"/>
<path d="M139.84 336.8C167.392 341.28 202.56 344 240.864 344C252.128 344 263.104 343.776 273.696 343.328C291.84 342.56 306.912 357.152 306.912 375.296V570.432C306.912 587.488 293.536 601.632 276.512 602.4C265.056 602.912 253.12 603.2 240.864 603.2C152.512 603.2 80.8638 588.864 80.8638 571.2" stroke="#30446D" stroke-width="4" stroke-miterlimit="10" stroke-linecap="round" stroke-linejoin="round"/>
<path d="M258.944 343.808V546.944" stroke="#30446D" stroke-width="4" stroke-miterlimit="10" stroke-linecap="round" stroke-linejoin="round"/>
<path d="M154.464 550.144V495.744C170.816 497.856 189.184 499.36 208.864 500.16V445.76C189.184 444.96 170.816 443.424 154.464 441.344V386.944C131.808 384.032 113.088 380 100.16 375.264" stroke="#30446D" stroke-width="4" stroke-miterlimit="10" stroke-linecap="round" stroke-linejoin="round"/>
<path d="M560.256 590.528H512.448C515.872 591.232 518.592 605.248 518.592 622.464C518.592 639.68 515.872 653.696 512.448 654.4H560.256C577.888 654.4 592.192 640.096 592.192 622.464C592.192 604.832 577.92 590.528 560.256 590.528Z" fill="#FFD101"/>
<path d="M518.592 622.464C518.592 605.248 515.872 591.232 512.448 590.528H470.528C452.896 590.528 438.592 604.832 438.592 622.464C438.592 640.096 452.896 654.4 470.528 654.4H512.448C515.872 653.696 518.592 639.68 518.592 622.464Z" fill="white"/>
<path d="M560.256 654.4H470.528C452.896 654.4 438.592 640.096 438.592 622.464C438.592 604.832 452.896 590.528 470.528 590.528H560.256C577.888 590.528 592.192 604.832 592.192 622.464C592.192 640.096 577.92 654.4 560.256 654.4Z" stroke="#30446D" stroke-width="4" stroke-miterlimit="10" stroke-linecap="round" stroke-linejoin="round"/>
<path d="M512.192 590.464C515.712 590.464 518.592 604.8 518.592 622.464C518.592 640.128 515.712 654.464 512.192 654.464" stroke="#30446D" stroke-width="4" stroke-miterlimit="10" stroke-linecap="round" stroke-linejoin="round"/>
<path d="M673.279 599.872L639.487 566.08C641.407 568.992 633.439 580.832 621.247 592.992C609.055 605.184 597.247 613.152 594.335 611.232L628.127 645.024C640.607 657.504 660.831 657.504 673.279 645.024C685.759 632.576 685.759 612.352 673.279 599.872Z" fill="#FFD101"/>
<path d="M621.247 592.992C633.439 580.8 641.407 568.992 639.487 566.08L609.824 536.416C597.344 523.936 577.12 523.936 564.672 536.416C552.192 548.896 552.192 569.12 564.672 581.568L594.335 611.232C597.247 613.152 609.055 605.184 621.247 592.992Z" fill="white"/>
<path d="M628.127 645.056L564.672 581.6C552.192 569.12 552.192 548.896 564.672 536.448C577.152 523.968 597.376 523.968 609.824 536.448L673.279 599.904C685.759 612.384 685.759 632.608 673.279 645.056C660.799 657.504 640.607 657.504 628.127 645.056Z" stroke="#30446D" stroke-width="4" stroke-miterlimit="10" stroke-linecap="round" stroke-linejoin="round"/>
<path d="M639.36 565.856C641.856 568.352 633.76 580.512 621.248 593.024C608.736 605.536 596.608 613.632 594.08 611.136" stroke="#30446D" stroke-width="4" stroke-miterlimit="10" stroke-linecap="round" stroke-linejoin="round"/>
</svg>
