<svg width="646" height="598" viewBox="0 0 646 598" fill="none" xmlns="http://www.w3.org/2000/svg">
<path d="M355.064 531.576L173.656 379.352C160.12 367.992 158.36 347.8 169.72 334.264L404.216 54.808C415.576 41.272 435.768 39.512 449.304 50.872L630.712 203.096C644.248 214.456 646.008 234.648 634.648 248.184L400.152 527.64C388.792 541.176 368.6 542.936 355.064 531.576Z" fill="white"/>
<path d="M533.496 275.928C556.471 275.928 575.096 257.303 575.096 234.328C575.096 211.353 556.471 192.728 533.496 192.728C510.521 192.728 491.896 211.353 491.896 234.328C491.896 257.303 510.521 275.928 533.496 275.928Z" stroke="#110F0D" stroke-width="6" stroke-miterlimit="10" stroke-linecap="round" stroke-linejoin="round"/>
<path d="M353.144 291.704C376.119 291.704 394.744 273.079 394.744 250.104C394.744 227.129 376.119 208.504 353.144 208.504C330.169 208.504 311.544 227.129 311.544 250.104C311.544 273.079 330.169 291.704 353.144 291.704Z" stroke="#110F0D" stroke-width="6" stroke-miterlimit="10" stroke-linecap="round" stroke-linejoin="round"/>
<path d="M424.472 364.248C406.872 349.464 404.568 323.256 419.352 305.656C434.136 288.056 460.344 285.752 477.944 300.536C495.544 315.32 497.848 341.528 483.064 359.128C474.84 368.92 463.064 373.976 451.192 373.976" stroke="#110F0D" stroke-width="6" stroke-miterlimit="10" stroke-linecap="round" stroke-linejoin="round"/>
<path d="M270.872 389.752C293.847 389.752 312.472 371.127 312.472 348.152C312.472 325.177 293.847 306.552 270.872 306.552C247.897 306.552 229.272 325.177 229.272 348.152C229.272 371.127 247.897 389.752 270.872 389.752Z" stroke="#110F0D" stroke-width="6" stroke-miterlimit="10" stroke-linecap="round" stroke-linejoin="round"/>
<path d="M368.92 472.024C391.895 472.024 410.52 453.399 410.52 430.424C410.52 407.449 391.895 388.824 368.92 388.824C345.945 388.824 327.32 407.449 327.32 430.424C327.32 453.399 345.945 472.024 368.92 472.024Z" stroke="#110F0D" stroke-width="6" stroke-miterlimit="10" stroke-linecap="round" stroke-linejoin="round"/>
<path d="M598.904 290.776L400.152 527.64" stroke="#110F0D" stroke-width="6" stroke-miterlimit="10" stroke-linecap="round" stroke-linejoin="round"/>
<path d="M293.432 479.896L173.656 379.384C160.12 368.024 158.36 347.832 169.72 334.296L404.216 54.84C415.576 41.304 435.768 39.544 449.304 50.904L630.712 203.128C644.248 214.488 646.008 234.68 634.648 248.216" stroke="#110F0D" stroke-width="6" stroke-miterlimit="10" stroke-linecap="round" stroke-linejoin="round"/>
<path d="M400.152 527.64C388.792 541.176 368.6 542.936 355.064 531.576" stroke="#110F0D" stroke-width="6" stroke-miterlimit="10" stroke-linecap="round" stroke-linejoin="round"/>
<path d="M435.416 193.656C458.391 193.656 477.016 175.031 477.016 152.056C477.016 129.081 458.391 110.456 435.416 110.456C412.441 110.456 393.816 129.081 393.816 152.056C393.816 175.031 412.441 193.656 435.416 193.656Z" stroke="#110F0D" stroke-width="6" stroke-miterlimit="10" stroke-linecap="round" stroke-linejoin="round"/>
<path d="M179.864 3C82.648 3 3.86401 18.744 3.86401 38.2V166.2C3.86401 171.448 9.62401 176.408 19.896 180.888H19.864V563C19.864 580.664 91.512 595 179.864 595C268.216 595 339.864 580.664 339.864 563V180.888H339.832C350.104 176.408 355.864 171.448 355.864 166.2V38.2C355.864 18.744 277.08 3 179.864 3Z" fill="white"/>
<path d="M179.864 259C91.512 259 19.864 244.664 19.864 227V486.2C19.864 503.864 91.512 518.2 179.864 518.2C185.976 518.2 191.992 518.136 197.912 518.008V258.808C191.992 258.904 185.976 259 179.864 259Z" fill="white"/>
<path d="M147.864 360.76C128.184 359.96 109.816 358.424 93.464 356.344V301.944C70.808 299.032 52.088 295 39.16 290.264V344.664C26.872 340.12 19.864 334.936 19.864 329.432V383.832C19.864 389.336 26.872 394.552 39.16 399.064V453.464C52.056 458.2 70.808 462.232 93.464 465.144V410.744C109.816 412.856 128.184 414.36 147.864 415.16V360.76Z" fill="#FFD101"/>
<path d="M179.864 3C82.648 3 3.86401 18.744 3.86401 38.2V166.2C3.86401 185.656 82.648 201.4 179.864 201.4C277.08 201.4 355.864 185.656 355.864 166.2V38.2C355.864 18.744 277.08 3 179.864 3Z" fill="#FFD101"/>
<path d="M339.864 488.344V180.888" stroke="#110F0D" stroke-width="6" stroke-miterlimit="10" stroke-linecap="round" stroke-linejoin="round"/>
<path d="M19.864 180.888V563C19.864 580.664 91.512 595 179.864 595C257.176 595 321.688 584.024 336.6 569.464" stroke="#110F0D" stroke-width="6" stroke-miterlimit="10" stroke-linecap="round" stroke-linejoin="round"/>
<path d="M318.424 16.504C341.88 22.488 355.864 30.008 355.864 38.2" stroke="#110F0D" stroke-width="6" stroke-miterlimit="10" stroke-linecap="round" stroke-linejoin="round"/>
<path d="M355.864 38.2C355.864 57.656 277.08 73.4 179.864 73.4C82.648 73.4 3.86401 57.656 3.86401 38.2C3.86401 18.744 82.648 3 179.864 3" stroke="#110F0D" stroke-width="6" stroke-miterlimit="10" stroke-linecap="round" stroke-linejoin="round"/>
<path d="M355.864 38.2V166.2C355.864 185.656 277.08 201.4 179.864 201.4C82.648 201.4 3.86401 185.656 3.86401 166.2V38.2" stroke="#110F0D" stroke-width="6" stroke-miterlimit="10" stroke-linecap="round" stroke-linejoin="round"/>
<path d="M78.84 251.8C106.392 256.28 141.56 259 179.864 259C191.128 259 202.104 258.776 212.696 258.328C230.84 257.56 245.912 272.152 245.912 290.296V485.432C245.912 502.488 232.536 516.632 215.512 517.4C204.056 517.912 192.12 518.2 179.864 518.2C91.512 518.2 19.864 503.864 19.864 486.2" stroke="#110F0D" stroke-width="6" stroke-miterlimit="10" stroke-linecap="round" stroke-linejoin="round"/>
<path d="M197.944 258.808V461.944" stroke="#110F0D" stroke-width="6" stroke-miterlimit="10" stroke-linecap="round" stroke-linejoin="round"/>
<path d="M93.464 465.144V410.744C109.816 412.856 128.184 414.36 147.864 415.16V360.76C128.184 359.96 109.816 358.424 93.464 356.344V301.944C70.808 299.032 52.088 295 39.16 290.264" stroke="#110F0D" stroke-width="6" stroke-miterlimit="10" stroke-linecap="round" stroke-linejoin="round"/>
<path d="M499.256 505.528H451.448C454.872 506.232 457.592 520.248 457.592 537.464C457.592 554.68 454.872 568.696 451.448 569.4H499.256C516.888 569.4 531.192 555.096 531.192 537.464C531.192 519.832 516.92 505.528 499.256 505.528Z" fill="#FFD101"/>
<path d="M457.592 537.464C457.592 520.248 454.872 506.232 451.448 505.528H409.528C391.896 505.528 377.592 519.832 377.592 537.464C377.592 555.096 391.896 569.4 409.528 569.4H451.448C454.872 568.696 457.592 554.68 457.592 537.464Z" fill="white"/>
<path d="M499.256 569.4H409.528C391.896 569.4 377.592 555.096 377.592 537.464C377.592 519.832 391.896 505.528 409.528 505.528H499.256C516.888 505.528 531.192 519.832 531.192 537.464C531.192 555.096 516.92 569.4 499.256 569.4Z" stroke="#110F0D" stroke-width="6" stroke-miterlimit="10" stroke-linecap="round" stroke-linejoin="round"/>
<path d="M451.192 505.464C454.712 505.464 457.592 519.8 457.592 537.464C457.592 555.128 454.712 569.464 451.192 569.464" stroke="#110F0D" stroke-width="6" stroke-miterlimit="10" stroke-linecap="round" stroke-linejoin="round"/>
<path d="M612.28 514.872L578.488 481.08C580.408 483.992 572.44 495.832 560.248 507.992C548.056 520.184 536.248 528.152 533.336 526.232L567.128 560.024C579.608 572.504 599.832 572.504 612.28 560.024C624.76 547.576 624.76 527.352 612.28 514.872Z" fill="#FFD101"/>
<path d="M560.248 507.992C572.44 495.8 580.408 483.992 578.488 481.08L548.824 451.416C536.344 438.936 516.12 438.936 503.672 451.416C491.192 463.896 491.192 484.12 503.672 496.568L533.336 526.232C536.248 528.152 548.056 520.184 560.248 507.992Z" fill="white"/>
<path d="M567.128 560.056L503.672 496.6C491.192 484.12 491.192 463.896 503.672 451.448C516.152 438.968 536.376 438.968 548.824 451.448L612.28 514.904C624.76 527.384 624.76 547.608 612.28 560.056C599.8 572.504 579.608 572.504 567.128 560.056Z" stroke="#110F0D" stroke-width="6" stroke-miterlimit="10" stroke-linecap="round" stroke-linejoin="round"/>
<path d="M578.36 480.856C580.856 483.352 572.76 495.512 560.248 508.024C547.736 520.536 535.608 528.632 533.08 526.136" stroke="#110F0D" stroke-width="6" stroke-miterlimit="10" stroke-linecap="round" stroke-linejoin="round"/>
</svg>
