<svg width="188" height="185" viewBox="0 0 188 185" fill="none" xmlns="http://www.w3.org/2000/svg">
<path d="M130.6 2C100.278 2 75.7019 26.5759 75.7019 56.8977C75.7019 69.204 79.7552 80.5678 86.59 89.7266L79.3618 108.383L98.0819 101.136C107.177 107.834 118.431 111.795 130.6 111.795C160.922 111.795 185.497 87.2196 185.497 56.8977C185.497 26.5759 160.922 2 130.6 2ZM130.6 84.3466C115.439 84.3466 103.151 72.0586 103.151 56.8977C103.151 41.7368 115.439 29.4489 130.6 29.4489C145.761 29.4489 158.049 41.7368 158.049 56.8977C158.049 72.0586 145.761 84.3466 130.6 84.3466Z" fill="white"/>
<path d="M92.2446 146.848C81.1461 141.331 70.9351 134.02 61.9868 125.081C53.3496 116.444 46.2403 106.626 40.7871 95.9577L49.0401 87.7047C55.0514 81.6934 55.0514 71.9491 49.0401 65.9469L38.1703 55.0497C32.159 49.0384 22.4147 49.0384 16.4125 55.0497L9.24838 62.2139C3.22793 68.2343 1.05032 77.0546 3.47497 85.216C10.3646 108.419 22.9088 129.509 40.229 146.839C58.0525 164.662 79.8194 177.408 103.782 184.16C111.752 186.402 120.316 184.069 126.171 178.213L133.445 170.939C139.457 164.928 139.457 155.183 133.445 149.181L122.566 138.302C116.555 132.291 106.811 132.291 100.809 138.302L92.2446 146.848Z" fill="#FFD101"/>
<path d="M130.6 29.4489C134.324 29.4489 137.865 30.19 141.104 31.535L151.607 6.17223C145.139 3.49139 138.048 2 130.6 2C123.152 2 116.061 3.49139 109.592 6.17223L120.096 31.535C123.335 30.19 126.876 29.4489 130.6 29.4489Z" fill="#FAF0D3"/>
<path d="M158.049 56.8978C158.049 60.6217 157.307 64.1626 155.962 67.4016L181.325 77.9053C184.006 71.4365 185.497 64.3456 185.497 56.8978C185.497 49.45 184.006 42.359 181.325 35.8903L155.962 46.394C157.307 49.633 158.049 53.1739 158.049 56.8978Z" fill="#FAF0D3"/>
<path d="M103.151 56.8978C103.151 53.1739 103.892 49.633 105.237 46.394L79.8742 35.8903C77.1933 42.359 75.7019 49.45 75.7019 56.8978C75.7019 64.3456 77.1933 71.4365 79.8742 77.9053L105.237 67.4016C103.892 64.1626 103.151 60.6217 103.151 56.8978Z" fill="#FAF0D3"/>
<path d="M130.6 84.3464C126.876 84.3464 123.335 83.6052 120.096 82.2603L109.592 107.623C116.061 110.304 123.161 111.795 130.6 111.795C138.038 111.795 145.139 110.304 151.607 107.623L141.104 82.2603C137.865 83.6052 134.324 84.3464 130.6 84.3464Z" fill="#FAF0D3"/>
<path d="M126.171 178.203L133.445 170.929C139.457 164.918 139.457 155.174 133.445 149.171L122.566 138.293C116.555 132.281 106.811 132.281 100.809 138.293L92.2446 146.857" stroke="#000000" stroke-width="4" stroke-miterlimit="10" stroke-linecap="round" stroke-linejoin="round"/>
<path d="M77.2301 173.766C80.7253 175.55 84.2936 177.188 87.9169 178.68" stroke="#000000" stroke-width="4" stroke-miterlimit="10" stroke-linecap="round" stroke-linejoin="round"/>
<path d="M49.0492 87.6956C55.0605 81.6843 55.0605 71.9399 49.0492 65.9378L38.1703 55.0497C32.159 49.0384 22.4147 49.0384 16.4125 55.0497L9.24838 62.2139C3.22793 68.2343 1.05032 77.0546 3.47497 85.216C10.3646 108.419 22.9088 129.509 40.229 146.839C49.0584 155.668 58.8485 163.253 69.398 169.475" stroke="#000000" stroke-width="4" stroke-miterlimit="10" stroke-linecap="round" stroke-linejoin="round"/>
<path d="M92.2445 146.848C81.146 141.331 70.9351 134.02 61.9867 125.081C53.3495 116.444 46.2402 106.626 40.787 95.9579" stroke="#000000" stroke-width="4" stroke-miterlimit="10" stroke-linecap="round" stroke-linejoin="round"/>
<path d="M175.149 24.8097C181.664 33.8312 185.497 44.9206 185.497 56.8974C185.497 87.2193 160.922 111.795 130.6 111.795" stroke="#000000" stroke-width="4" stroke-miterlimit="10" stroke-linecap="round" stroke-linejoin="round"/>
<path d="M98.0819 101.127L79.3618 108.373L86.59 89.7174L86.6083 89.7357C79.7552 80.5861 75.7019 69.2131 75.7019 56.8977C75.7019 26.5759 100.278 2 130.6 2C142.458 2 153.428 5.76049 162.404 12.1469" stroke="#000000" stroke-width="4" stroke-miterlimit="10" stroke-linecap="round" stroke-linejoin="round"/>
<path d="M120.096 31.5346L109.592 6.17188" stroke="#000000" stroke-width="4" stroke-miterlimit="10" stroke-linecap="round" stroke-linejoin="round"/>
<path d="M172.002 74.0446L155.962 67.402" stroke="#000000" stroke-width="4" stroke-miterlimit="10" stroke-linecap="round" stroke-linejoin="round"/>
<path d="M151.607 107.624L147.225 97.0283" stroke="#000000" stroke-width="4" stroke-miterlimit="10" stroke-linecap="round" stroke-linejoin="round"/>
<path d="M120.096 82.2603L115.439 93.496" stroke="#000000" stroke-width="4" stroke-miterlimit="10" stroke-linecap="round" stroke-linejoin="round"/>
<path d="M79.8743 77.9057L105.237 67.402" stroke="#000000" stroke-width="4" stroke-miterlimit="10" stroke-linecap="round" stroke-linejoin="round"/>
<path d="M105.237 46.3942L96.243 42.6703" stroke="#000000" stroke-width="4" stroke-miterlimit="10" stroke-linecap="round" stroke-linejoin="round"/>
<path d="M141.103 82.2603L143.437 87.8781" stroke="#000000" stroke-width="4" stroke-miterlimit="10" stroke-linecap="round" stroke-linejoin="round"/>
<path d="M141.103 31.5352L144.452 23.4561" stroke="#000000" stroke-width="4" stroke-miterlimit="10" stroke-linecap="round" stroke-linejoin="round"/>
<path d="M105.237 46.3848C109.364 36.4392 119.163 29.4489 130.6 29.4489C145.761 29.4489 158.049 41.7368 158.049 56.8977C158.049 72.0586 145.761 84.3466 130.6 84.3466C119.227 84.3466 109.473 77.4295 105.31 67.5845" stroke="#000000" stroke-width="4" stroke-miterlimit="10" stroke-linecap="round" stroke-linejoin="round"/>
<path d="M92.2446 146.847L103.279 151.468" stroke="#000000" stroke-width="4" stroke-miterlimit="10" stroke-linecap="round" stroke-linejoin="round"/>
</svg>
