<svg xmlns="http://www.w3.org/2000/svg" width="202" height="169" fill="none" viewBox="0 0 202 169">
  <path fill="#FFD101" fill-rule="evenodd" d="M1.064 91.266v77.438h200.334V13.828H1.064v77.438Z" clip-rule="evenodd"/>
  <path fill="#FFD101" fill-rule="evenodd" d="M1.064 91.266v77.438h200.334V13.828H1.064v77.438Zm131.763-56c.151 1.303.578 1.73 1.884 1.88 1.355.157 1.704.537 1.765 1.928.067 1.509.042 1.534-.195.195-.197-1.116-.734-1.591-1.961-1.732-1.315-.152-1.732-.576-1.887-1.92-.154-1.339-.53-1.724-1.685-1.724s-1.531.385-1.686 1.724c-.16 1.394-.531 1.74-1.933 1.801-1.589.07-1.602.053-.157-.199 1.14-.198 1.578-.669 1.578-1.696 0-2.967 3.936-3.204 4.277-.257Zm-.126 9.019c-.198.515-1.085.854-2.091.8l-1.746-.094 1.727-.26c1.444-.22 1.74-.589 1.812-2.258.067-1.552.148-1.672.364-.54.153.801.123 1.86-.066 2.352Zm-92.7 46.366 2.826 3.123-2.983-2.795c-1.64-1.538-2.983-3.066-2.983-3.397 0-.33.07-.478.157-.328.086.15 1.428 1.679 2.983 3.397Zm59.19 21.408c-.432.175-1.139.175-1.57 0-.432-.173-.08-.316.784-.316s1.217.143.785.316Zm37.603 7.58c.781.994.759 1.016-.237.237-.605-.474-1.099-.968-1.099-1.097 0-.516.515-.185 1.336.86Zm-69.161 1.648c0 .129-.494.624-1.1 1.097-.995.779-1.017.757-.236-.237.82-1.045 1.336-1.376 1.336-.86Zm38.477 2.682c-.425.172-1.273.183-1.884.023-.611-.159-.263-.299.773-.312 1.037-.013 1.536.117 1.111.289Zm3.756.631c-.431.174-1.138.174-1.57 0-.431-.174-.078-.316.785-.316.864 0 1.217.142.785.316Zm-46.828 4.719c-.2.5-.35.351-.38-.379-.026-.661.122-1.031.33-.823.209.208.231.749.05 1.202Zm78.778.676c-.621.615-.692.543-.352-.351.236-.618.587-.966.781-.773.193.193 0 .699-.429 1.124Zm-61.165 8.363c-.209.208-.75.231-1.203.05-.501-.2-.353-.349.379-.379.662-.027 1.032.121.824.329Zm3.14.627c-.209.208-.75.231-1.203.05-.501-.2-.353-.349.379-.379.662-.027 1.032.121.824.329Z" clip-rule="evenodd"/>
  <path fill="#FAF0D3" fill-rule="evenodd" d="M1.064 91.266v77.438h200.334V13.828H1.064v77.438Zm131.763-56c.151 1.303.578 1.73 1.884 1.88 2.673.31 2.856 3.644.2 3.644-1.668 0-1.908.235-2.083 2.038-.31 3.212-3.65 3.432-3.65.24 0-1.928-.21-2.219-1.727-2.393-2.492-.286-2.964-3.647-.513-3.647 1.27 0 1.612-.31 1.612-1.463 0-3.002 3.932-3.277 4.277-.3Zm-88.95 47.946c1.068.965 1.227.965 2.296 0 2.772-2.505 7.016-.682 7.016 3.01 0 2.917-7.239 9.583-8.837 8.139-.547-.495-1.246-.9-1.551-.9-1.521 0-5.94-5.353-5.931-7.185.02-3.772 4.2-5.6 7.006-3.064Zm80.406 29.53c11.678 6 12.343 6.398 14.695 8.806 9.226 9.442-3.856 16.416-36.189 19.293l-4.722.42-1.122-4.817c-.618-2.649-1.254-5.158-1.413-5.574-.208-.538 3.933-1.46 14.322-3.188 8.038-1.337 14.882-2.671 15.21-2.964.835-.746-.399-.677-6.262.353-4.388.772-5.48.767-8.478-.039-5.069-1.363-11.6-1.334-15.475.069-2.875 1.04-3.87 1.097-8.792.499-5.132-.624-6.509-.596-5.796.116.495.493 16.323 2.266 16.924 1.895.32-.197 1.079-.07 1.686.283.953.554.875.644-.571.661-2.316.026-3.663.624-3.663 1.625 0 .488-.997 1.015-2.355 1.246-6.853 1.168-8.32 2.34-8.32 6.647 0 1.457.093 1.461-7.05-.348-10.073-2.551-14.823-5.965-13.94-10.02.42-1.938 3.696-6.655 4.62-6.655.266 0 2.313-1.199 4.55-2.665 7.106-4.655 16.37-8.77 18.19-8.079 6.209 2.357 17.579 2.247 23.276-.224 2.981-1.293 2.986-1.291 10.675 2.66Z" clip-rule="evenodd"/>
  <path fill="#110F0D" fill-rule="evenodd" d="M1.064 91.266v77.438h200.334V13.828H1.064v77.438Zm131.763-56c.151 1.303.578 1.73 1.884 1.88 1.375.16 1.724.555 1.878 2.13.179 1.83.086 1.918-1.727 1.653-1.779-.26-1.916-.144-1.916 1.634 0 2.186-.231 2.407-2.826 2.71-1.705.2-1.895.04-1.996-1.661l-.111-1.881.508 1.881.508 1.881.075-2.31c.066-2.075-.102-2.33-1.653-2.508-2.492-.286-2.964-3.647-.513-3.647 1.27 0 1.612-.31 1.612-1.463 0-3.002 3.932-3.277 4.277-.3Zm-61.103.8c4.133 1.95 5.03 3.413 5.215 8.486.498 13.673-18.253 16.53-21.29 3.245-2.077-9.081 7.26-15.895 16.075-11.732Zm-12.883-.076c0 .12-.636.754-1.413 1.411l-1.413 1.195 1.196-1.411c1.124-1.326 1.63-1.696 1.63-1.195Zm2.506 1.195c-2.81 1.909-4.349 4.117-4.798 6.885-.474 2.913.163 4.977 1.11 3.6.491-.712.55-.616.26.422-.215.77-.01 1.71.48 2.2.471.47.773 1.135.67 1.477-1.07 3.574 10.364 4.359 13.884.952 8.46-8.187-1.937-22.107-11.606-15.536Zm-7.095 9.08c-.16.61-.3.263-.313-.772-.012-1.035.118-1.534.29-1.11.172.425.182 1.272.023 1.882Zm24.492 0c-.16.61-.3.263-.313-.772-.012-1.035.118-1.534.29-1.11.172.425.183 1.272.023 1.882Zm46.118-.615c.781.994.759 1.016-.237.237-.605-.474-1.099-.968-1.099-1.098 0-.516.515-.184 1.336.86Zm-.628 1.254c.781.994.759 1.016-.237.237-1.047-.82-1.379-1.334-.862-1.334.13 0 .625.494 1.099 1.097Zm-15.467 3.292c.625.69.996 1.254.823 1.254-.173 0-.826-.565-1.451-1.254-.624-.69-.995-1.254-.822-1.254.172 0 .826.564 1.45 1.254Zm-35.482.864c0 .13-.494.624-1.099 1.097-.996.78-1.018.758-.237-.237.82-1.045 1.336-1.376 1.336-.86Zm30.602 6.412c-.208.208-.75.23-1.203.05-.501-.2-.352-.35.379-.38.662-.026 1.033.122.824.33Zm4.566 4.047c0 .325-.235.59-.523.59-.288 0-.523-.41-.523-.913 0-.502.235-.767.523-.59.288.178.523.588.523.913Zm-1.468 3.882c-.174.431-.316.079-.316-.784 0-.862.142-1.214.316-.784.175.432.175 1.137 0 1.568Zm48.433 1.34c1.629.823 4.137 1.848 5.573 2.277 2.58.77 4.203 3.354 2.479 3.944-.504.173-.499.766.019 2.17.586 1.59.559 1.872-.157 1.598-.533-.204-.87.083-.87.74 0 8.39-9.602 15.086-14.388 10.034-6.241-6.588-9.157-18.49-4.533-18.5.563 0 2.718-.825 4.791-1.832 2.072-1.008 3.848-1.853 3.946-1.88.098-.026 1.511.626 3.14 1.45Zm-15.12 5.55c-.15.78-.279.29-.286-1.09-.007-1.38.116-2.018.273-1.418.157.6.163 1.728.013 2.508Zm-42.406 2.672c1.852 1.556 4.909 2.142 4.909.94 0-.344.213-.564.471-.487.259.077 1.244-.376 2.188-1.006 3.677-2.453 13.852 1.08 19.01 6.6 2.503 2.679 6.765 8.343 5.049 6.71-.238-.227-1.33.556-2.428 1.74-1.097 1.183-2.561 2.261-3.251 2.395-.691.134-1.714.425-2.274.647-.708.28-1.697-.414-3.255-2.287-1.231-1.48-2.443-2.485-2.695-2.234-.251.25-.012.951.53 1.557.978 1.09 1.018 2.746.362 15.209-.182 3.457-3.386 5.185-11.47 6.187-2.667.331-5.038.802-5.27 1.048-.906.963 9.228-.273 13.097-1.596l4.098-1.402 6.892 3.528c3.791 1.941 7.882 4.094 9.091 4.785 1.209.692 2.613 1.098 3.121.904.507-.194.748-.179.534.035-.213.213.744 1.568 2.127 3.011 9.405 9.815-3.186 16.68-35.939 19.594l-4.722.42-1.122-4.817c-.618-2.649-1.254-5.158-1.413-5.574-.208-.538 3.933-1.46 14.322-3.188 8.038-1.337 14.882-2.671 15.21-2.964.82-.733-.96-.629-6.562.384-4.058.733-5.274.722-8.776-.08-2.237-.511-4.7-.808-5.476-.66-.829.158-1.252.012-1.026-.352.519-.84-4.92-.058-8.69 1.249-2.484.861-3.766.913-8.477.341-5.132-.624-6.509-.596-5.796.116.46.459 15.792 2.139 17.96 1.968 1.11-.088 1.87.077 1.69.365-.177.289-.99.525-1.805.525-2.115 0-3.469.627-3.469 1.606 0 .488-.997 1.015-2.355 1.246-6.853 1.168-8.32 2.34-8.32 6.647 0 1.486-.47 1.464-7.406-.34-6.395-1.664-10.386-3.503-12.12-5.587-1.333-1.602-2.72-5.064-1.802-4.497.332.204.603-.098.603-.672 0-1.109 3.54-5.927 4.356-5.927.265 0 2.312-1.199 4.549-2.665 7.843-5.139 16.285-8.751 18.58-7.952 2.95 1.027 3.996.304 1.246-.862-1.295-.549-2.355-1.122-2.355-1.274 0-1.327-2.653-12.684-3.085-13.212-.903-1.101-.994-3.71-.18-5.188 2.036-3.704.142-2.796-2.75 1.317-.804 1.145-.968 1.154-3.437.185-2.427-.952-2.57-.949-2.22.052.49 1.41-1.25-.755-2.484-3.09-.819-1.55-.715-1.88 1.678-5.33 3.816-5.505 5.92-6.73 14.99-8.741 1.9-.422 3.555-.795 3.678-.83.122-.035 1.062.641 2.089 1.503Zm55.961 1.052c-2.505 2.503-2.703 2.584-3.807 1.586-.9-.813-1.337-.883-1.911-.309-1.15 1.148-.907 1.985 1.149 3.951l1.894 1.812 3.758-3.713c2.067-2.042 3.758-3.98 3.758-4.307 0-.327-.184-.41-.409-.186-.225.225-.72-.015-1.099-.533-.583-.795-1.1-.53-3.333 1.699Zm-73.032.72c0 .112-.777.888-1.727 1.725l-1.727 1.52 1.522-1.725c1.423-1.611 1.932-2.012 1.932-1.52Zm-36.945 6.477c1.069.965 1.229.965 2.297 0 2.772-2.505 7.016-.682 7.016 3.01 0 2.917-7.239 9.583-8.837 8.139-.547-.495-1.246-.9-1.551-.9-1.521 0-5.94-5.353-5.931-7.185.02-3.772 4.2-5.6 7.006-3.064Zm9.94 6.096c0 .13-.493.624-1.098 1.098-.996.779-1.018.757-.238-.237.821-1.045 1.337-1.377 1.337-.86Zm66.022 4.623c.781.994.759 1.016-.237.237-.605-.474-1.099-.968-1.099-1.098 0-.515.515-.184 1.336.86Zm22.837 16.452c.22.355-.032.461-.591.247-1.087-.417-1.286-.867-.383-.867.325 0 .763.279.974.62Zm2.283 4.867c.781.994.759 1.016-.237.237-1.046-.82-1.379-1.335-.862-1.335.13 0 .625.494 1.099 1.098Zm5.572 3.292c0 .344-.3.627-.665.627-.366 0-.491-.283-.277-.627.213-.345.512-.627.665-.627.153 0 .277.282.277.627Zm-4.763 8.553c.331.861.239.9-.561.237-1.089-.903-1.203-1.266-.395-1.266.308 0 .738.463.956 1.029Zm-.809 1.322c.781.995.759 1.017-.237.237-1.046-.819-1.379-1.334-.862-1.334.13 0 .625.493 1.099 1.097Zm-89.807 4.087c-.62.614-.692.542-.352-.352.236-.618.587-.966.78-.773.194.193.001.699-.428 1.125Zm54.388 8.989c-.208.208-.75.231-1.203.05-.501-.2-.352-.349.379-.379.662-.027 1.033.121.824.329Zm6.531 3.227c.78.994.759 1.016-.238.237-1.046-.82-1.378-1.334-.861-1.334.13 0 .625.493 1.099 1.097Zm-28.34 2.275c0 .13-.495.624-1.1 1.097-.996.779-1.018.757-.237-.237.82-1.045 1.336-1.376 1.336-.86Z" clip-rule="evenodd"/>
  <path fill="#110F0D" fill-rule="evenodd" d="M1.064 91.266v77.438h200.334V13.828H1.064v77.438Zm123.921-60.351c-.274.431-.502 1.066-.508 1.41-.005.345-.409.627-.899.627-.49 0-1.021.392-1.18.872-.176.524-.012.698.411.437.464-.286.559-.06.28.665-.298.777-.502.857-.697.275-.223-.668-.376-.663-.817.032-.376.593-.545.621-.552.093-.005-.42.868-1.76 1.94-2.979 1.932-2.197 2.981-2.94 2.022-1.432Zm13.66 1.549c.838.938 1.029 1.326.424.863-.605-.463-1.099-.631-1.099-.374s-.421.118-.935-.308c-.515-.427-.78-1.026-.591-1.33.477-.772.495-.763 2.201 1.149Zm-73.694 1.18c-.209.209-.75.232-1.203.05-.502-.2-.353-.348.379-.378.662-.027 1.032.12.824.329Zm4.396 0c-.209.209-.75.232-1.203.05-.502-.2-.353-.348.379-.378.662-.027 1.032.12.824.329Zm63.599 1.503c0 1.672.209 1.881 1.884 1.881 1.734 0 1.884.175 1.884 2.195s-.15 2.194-1.884 2.194c-1.659 0-1.884.217-1.884 1.813 0 1.607-.251 1.842-2.218 2.07-2.681.313-2.828.19-2.723-2.263l.082-1.933.463 2.194.462 2.195.083-2.31c.074-2.077-.091-2.33-1.644-2.508-1.38-.158-1.783-.577-2.002-2.08-.265-1.813-.291-1.79-.72.628l-.444 2.508.091-2.508c.089-2.438.149-2.503 2.133-2.304 1.904.19 2.041.075 2.041-1.725 0-1.786.162-1.928 2.198-1.928 2.023 0 2.198.15 2.198 1.881Zm-61.086.766c2.214 1.105 6.346 5.19 5.248 5.19-.14 0-.056 1.055.186 2.343 2.208 11.747-13.44 18.018-20.15 8.075-6.458-9.567 4.188-20.858 14.716-15.608Zm-13.02.078c0 .119-.635.753-1.412 1.41l-1.413 1.195 1.196-1.411c1.124-1.326 1.63-1.696 1.63-1.195Zm3.272.829c-2.567 1.263-4.32 3.437-5.128 6.356-.727 2.627-.212 5.763.725 4.414.41-.59.474-.441.21.502-.215.767-.011 1.71.474 2.195.469.467.857 1.12.865 1.452.058 2.674 7.844 4.306 11.502 2.41 11.016-5.706 2.482-22.806-8.648-17.329Zm5.05-.004c-.431.175-1.138.175-1.57 0-.431-.173-.079-.316.785-.316.863 0 1.217.143.785.316Zm53.652.957c-.2.5-.349.351-.379-.38-.027-.66.121-1.03.33-.822.208.208.231.75.049 1.202Zm-59.461.726c0 .119-.636.753-1.413 1.41l-1.413 1.195 1.196-1.41c1.124-1.327 1.63-1.697 1.63-1.195Zm11.618 1.037c.625.69.995 1.254.823 1.254-.173 0-.826-.564-1.451-1.254-.625-.69-.995-1.254-.823-1.254.173 0 .826.565 1.451 1.254Zm47.83 2.038c-.174.431-.316.079-.316-.784 0-.862.142-1.214.316-.783.175.431.175 1.136 0 1.567Zm-53.796.784c0 .821.282 1.668.628 1.881.345.213.595 1.006.555 1.761-.067 1.27-.095 1.28-.375.12-.166-.69-.557-1.522-.869-1.85-.312-.328-.572-1.315-.576-2.194-.008-1.263-.139-1.401-.62-.659-.334.518-.612.636-.618.262-.005-.374.172-.86.392-1.08.706-.705 1.483.217 1.483 1.759Zm73.906-.823c-.201.5-.349.351-.38-.38-.027-.66.122-1.03.33-.822.209.208.231.75.05 1.202ZM74.97 44.043c-.2.5-.35.352-.38-.379-.026-.66.122-1.03.33-.823.209.209.231.75.05 1.202Zm-20.718 2.222c-.16.61-.3.263-.313-.772-.012-1.035.118-1.534.29-1.11.172.425.182 1.272.023 1.882Zm24.492 0c-.16.61-.3.263-.313-.772-.012-1.035.118-1.534.29-1.11.172.425.183 1.272.023 1.882Zm46.038-.772c.811.862 1.333 1.568 1.161 1.568-.173 0-.978-.706-1.789-1.568-.812-.862-1.334-1.568-1.162-1.568.173 0 .978.706 1.79 1.568Zm14.444-.097c0 .119-.636.754-1.413 1.41l-1.413 1.195 1.196-1.41c1.124-1.326 1.63-1.697 1.63-1.195Zm-14.992 1.508c.781.994.759 1.016-.237.237-1.047-.82-1.379-1.334-.862-1.334.13 0 .625.494 1.099 1.097Zm-49.264.901c-.2.5-.35.352-.38-.379-.026-.66.122-1.03.33-.823.209.209.231.75.05 1.203Zm-7.257.353c.78.994.759 1.016-.237.237-1.046-.82-1.379-1.334-.862-1.334.13 0 .625.494 1.1 1.097Zm28.18-.224c0 .136-.438.415-.974.62-.56.214-.811.109-.591-.246.368-.596 1.565-.882 1.565-.374Zm-2.512 1.224c0 .12-.635.754-1.413 1.41l-1.413 1.195 1.197-1.41c1.124-1.326 1.63-1.697 1.63-1.195Zm15.386 1.038c.625.69.996 1.254.823 1.254-.173 0-.826-.565-1.451-1.254-.624-.69-.995-1.254-.822-1.254.172 0 .826.564 1.45 1.254Zm23.401-.823c-.6.156-1.731.162-2.512.012-.781-.15-.29-.278 1.092-.285 1.381-.007 2.021.116 1.42.273ZM73.913 50.4c0 .112-.777.888-1.727 1.724l-1.727 1.52 1.522-1.724c1.423-1.611 1.932-2.012 1.932-1.52Zm-15.7 3.871c.811.863 1.334 1.568 1.161 1.568-.173 0-.978-.705-1.79-1.568-.81-.862-1.333-1.567-1.16-1.567.172 0 .977.705 1.789 1.567Zm18.212-1.35c0 .118-.636.753-1.413 1.41l-1.413 1.194 1.196-1.41c1.124-1.326 1.63-1.697 1.63-1.195Zm35.047 1.994c-.193.193-.544-.155-.78-.773-.341-.894-.269-.966.351-.352.43.426.623.932.429 1.125Zm-43.996-.525c-.605.158-1.593.158-2.198 0-.605-.157-.11-.287 1.099-.287s1.704.13 1.099.287Zm34.079 2.884 2.816.267-3.091-.067c-2.174-.047-3.166-.346-3.344-1.008-.176-.65-.09-.712.275-.2.291.407 1.796.86 3.344 1.008Zm-6.29 1.34c0 .492-.826 1.307-1.837 1.81-1.527.761-1.78.769-1.502.046.183-.478.869-.869 1.522-.869.654 0 1.19-.423 1.19-.94 0-.518.14-.941.313-.941s.314.403.314.895Zm-7.107 1.732c-.2.5-.35.351-.38-.38-.026-.66.122-1.03.33-.822.209.208.232.75.05 1.202Zm21.202-.801c.542.875-.306 2.564-1.288 2.564-.575 0-.907.805-.969 2.352-.079 1.977-.136 2.068-.36.574-.147-.978-.06-2.247.193-2.822.254-.575.419-1.246.369-1.492-.051-.246.374-.269.945-.05.696.266.888.156.583-.336-.599-.968-2.076-.938-2.476.05-.189.468-.336.342-.366-.314-.053-1.175 2.701-1.606 3.369-.526Zm-9.27 2.055c-.2.5-.349.351-.38-.38-.026-.66.122-1.03.331-.822.208.208.231.75.049 1.202Zm3.13-.431c0 .517-.235.94-.524.94-.626 0-.689-.878-.104-1.463.582-.58.628-.543.628.523Zm-9.562.607c-.857.647-.954.926-.329.94.49.011.72.19.513.396-.208.207-.692.182-1.078-.055-.808-.5.306-2.202 1.442-2.202.37 0 .123.415-.548.92Zm1.395 2.998c-.174.431-.316.079-.316-.784 0-.862.142-1.214.316-.784.175.432.175 1.137 0 1.568Zm5.622.618c-.469.308-.406.463.19.47.489.005.708.19.486.413-.517.516-2.32-.961-2.308-1.89.005-.39.284-.285.618.232.485.75.62.622.663-.627.049-1.421.1-1.45.552-.313.303.763.224 1.434-.201 1.715Zm-13.158.01c-.174.43-.317.078-.317-.785 0-.862.143-1.214.317-.784.175.432.175 1.137 0 1.568Zm65.756-1.546c.168.271-.219.492-.859.492s-1.027-.221-.859-.492c.168-.27.554-.493.859-.493.304 0 .691.222.859.493Zm1.893 2.583c1.968 1.2 8.252 3.286 8.663 2.875.121-.122.174.767.118 1.972-.058 1.207-.255 2.345-.441 2.53-.184.185-.072 1.028.25 1.875.322.846.341 1.387.041 1.202-.301-.185-1.018.896-1.594 2.403-1.514 3.958-4.495 8.202-7.342 10.454l-2.475 1.957-2.953-2.415c-1.623-1.329-3.157-2.415-3.408-2.415-.251 0-.824-.41-1.273-.91-.713-.796-.665-.796.385 0 .661.5 1.072.628.914.283a523.518 523.518 0 0 0-2.346-4.832c-1.564-3.192-2.086-5.129-2.17-8.052l-.111-3.849 3.528-1.102c1.94-.607 4.194-1.568 5.007-2.137 1.902-1.33 2.809-1.302 5.207.16Zm-48.597.903c0 .119-.635.753-1.413 1.41l-1.413 1.195 1.197-1.41c1.124-1.326 1.629-1.697 1.629-1.195Zm-19.66 3.377c-.16.61-.3.263-.313-.772-.013-1.035.117-1.534.29-1.11.171.425.182 1.272.022 1.882Zm53.389 1.572c-.15.78-.279.29-.286-1.09-.007-1.38.116-2.018.273-1.418.157.6.163 1.728.013 2.508Zm-40.35-1.36c-.198.32-.697.561-1.109.534-.535-.035-.523-.14.041-.367.434-.175.602-.62.374-.988-.247-.4-.118-.487.32-.216.405.25.573.716.374 1.037Zm-2.186 3.703c1.598 1.596 4.39 2.32 5.02 1.301.26-.42.657-.737.881-.701.224.035 1.13-.41 2.014-.988 3.488-2.282 14.827 1.446 18.505 6.083 1.081 1.363 2.153 2.374 2.382 2.246.228-.128 1.003.986 1.721 2.476.719 1.489 1.024 2.534.678 2.32-.371-.228-.464.036-.229.65.219.57.149.968-.155.886-.305-.082-1.764.98-3.242 2.359-1.479 1.38-2.475 2.156-2.213 1.724.571-.94.093-.998-1.452-.173-.945.505-1.538.106-3.413-2.297-1.292-1.656-2.27-2.475-2.27-1.902 0 .554.32 1.204.711 1.445.486.3.595 2.051.344 5.524-.227 3.151-.156 4.608.187 3.83.395-.895.567-.975.599-.282.023.535-.223 1.24-.549 1.568-.325.328-.658 2.063-.738 3.858-.175 3.869-2.063 5.027-10.974 6.726l-4.966.947 4.082-.234c2.245-.128 5.926-.859 8.18-1.624l4.098-1.392 6.892 3.505c3.791 1.928 7.599 3.917 8.463 4.419 2.001 1.165 3.795 1.824 5.149 1.893.588.03 1.435.464 1.884.964.705.786.667.797-.282.08-1.849-1.397-1.225.205 1.166 2.994 1.808 2.109 2.442 2.496 3.14 1.917.481-.399.875-.515.875-.258s.424.116.942-.313c.518-.43.942-.571.942-.314 0 .257.399.137.886-.267.558-.462 1.027-.506 1.266-.12.443.715-.73 1.584-2.309 1.71-1.944.156-2.061.271-.942.922.605.352 1.099.956 1.099 1.344 0 .388-.657.089-1.46-.664-1.674-1.57-2.308-1.244-2.308 1.186 0 1.84-1.77 4.459-3.201 4.736-.484.094-2.671.914-4.859 1.821-5.012 2.081-15.104 4.328-25.125 5.595-11.912 1.507-10.957 1.8-12.253-3.764-.608-2.609-1.237-5.084-1.397-5.5-.207-.538 3.934-1.46 14.323-3.188 8.038-1.337 14.882-2.671 15.21-2.964.835-.746-.399-.677-6.275.356-4.369.767-5.557.766-8.793-.01-2.057-.494-5.154-.768-6.881-.609-2.388.219-2.689.164-1.256-.231 1.808-.497 1.819-.521.277-.592-.883-.041-2.155.34-2.826.846-.67.507-1.501.926-1.847.931-.345.006-.204-.263.314-.597 1.519-.98-.31-.744-3.209.414-2.241.896-3.41.948-8.334.379-5.316-.616-6.675-.59-5.972.111.224.224 15.114 2.231 16.556 2.231.223 0 .262-.231.088-.514-.176-.282.511-.391 1.526-.243 2.13.312 1.877 1.384-.326 1.384-2.115 0-3.469.627-3.469 1.606 0 .488-.997 1.015-2.355 1.246-6.944 1.183-8.32 2.322-8.32 6.881v1.394l-6.545-1.708c-8.684-2.268-12.258-4.142-13.88-7.278-1.382-2.671-1.72-2.805-4.068-1.614-1.374.696-1.434.686-.481-.084.599-.484.927-1.043.728-1.242-.2-.199.158-.277.794-.175 1.268.204 2.727-.7 2.727-1.688 0-.345-.494-.239-1.1.234-.994.779-1.017.757-.242-.23.47-.599 1.096-.942 1.39-.761.292.18 1.284-.805 2.203-2.192.918-1.386 1.884-2.388 2.144-2.227.262.161 2.298-.902 4.526-2.362 7.91-5.182 16.267-8.741 18.61-7.925 1.127.392 2.222.541 2.433.33.211-.211-.485-.686-1.549-1.056-1.994-.694-2.36-1.69-4.312-11.716-.218-1.121-.583-2.038-.812-2.038-.228 0-.463-.635-.521-1.411a19.71 19.71 0 0 0-.442-2.75c-.196-.78.055-1.663.6-2.115.515-.426.936-1.023.936-1.325 0-1.148-.996-.462-2.474 1.703-1.572 2.305-2.469 2.476-5.95 1.132-.84-.324-1.066-.243-.748.27 1.209 1.953-.292.415-1.768-1.811l-1.686-2.545 1.603-2.864c1.8-3.217 1.914-3.599.878-2.96-.453.28-.554.172-.27-.287.25-.403.673-.598.942-.432.27.166 1.284-.527 2.255-1.54 1.685-1.755 6.192-3.62 11.928-4.936 3.824-.877 4.605-.807 5.95.536Zm56.091 1.38c-2.505 2.504-2.703 2.585-3.807 1.587-2.063-1.863-2.852-.001-.837 1.972 1.592 1.559 1.597 1.584.095.409-1.396-1.092-1.363-.991.255.794l1.854 2.046 3.641-3.596c2.002-1.978 3.64-3.864 3.64-4.19 0-.328-.184-.411-.409-.187-.225.225-.72-.015-1.099-.533-.583-.795-1.1-.53-3.333 1.699Zm-73.032.721c0 .112-.777.888-1.727 1.725l-1.727 1.52 1.522-1.725c1.423-1.611 1.932-2.012 1.932-1.52Zm45.297 4.028c.781.995.759 1.017-.237.237-.605-.473-1.099-.967-1.099-1.097 0-.516.515-.184 1.336.86Zm-87.096 1.069c-1.121.838-1.029.882 1.15.543 1.78-.277 2.682-.087 3.626.766 1.288 1.164 2.797.57 2.797-1.103 0-.385.424-.816.942-.957.837-.228.837-.182 0 .409-.736.52-.435.667 1.368.675 2.867.012 4.284 1.353 4.284 4.058 0 2.916-7.239 9.582-8.837 8.138-1.576-1.425-2.182-1.047-.85.53.665.785-.424-.273-2.419-2.352-5.18-5.399-5.99-11.619-1.513-11.619.368 0 .122.41-.548.912Zm104.212.688c.214.558.108.81-.247.59-.342-.21-.621-.648-.621-.973 0-.902.45-.703.868.383Zm-68.693 2.79c-.37.689-.813 1.253-.986 1.253-.173 0-.012-.564.358-1.254.37-.69.813-1.254.986-1.254.173 0 .012.564-.358 1.254Zm86.037.236c0 .13-.494.624-1.099 1.097-.996.78-1.018.758-.237-.237.82-1.044 1.336-1.376 1.336-.86ZM53.817 89.308c0 .13-.494.624-1.1 1.098-.995.779-1.017.757-.237-.237.821-1.045 1.337-1.377 1.337-.86Zm66.217 4.486c.671.506.9.92.509.92-.392 0-.918-.334-1.17-.742-.316-.51-.609-.363-.936.47-.437 1.115-.479 1.098-.52-.198-.05-1.632.419-1.732 2.117-.45Zm-71.87.51c0 .119-.635.754-1.412 1.41l-1.413 1.195 1.196-1.41c1.124-1.326 1.63-1.697 1.63-1.195Zm74.983.933c.178.288-.075.523-.563.523-.488 0-.741-.235-.564-.523.178-.287.432-.522.564-.522.131 0 .385.235.563.522Zm-54.906 7.942c0 .345-.273.204-.608-.313-.335-.517-.609-1.223-.609-1.568s.274-.203.609.314c.335.517.609 1.223.609 1.567Zm19.29.432c-.201.5-.35.351-.38-.38-.027-.66.121-1.03.33-.822.208.208.23.749.05 1.202Zm50.164-.602c.214.215-.052.325-.591.246-.54-.079-1.157-.319-1.372-.533-.214-.214.052-.324.592-.245.54.079 1.157.319 1.371.532Zm-59.718.397c-.531.531-2.216.652-1.897.136.16-.257.726-.467 1.26-.467.533 0 .82.149.637.331Zm50.926 1.485c.214.214-.052.324-.591.245-.54-.079-1.157-.319-1.372-.533-.214-.214.052-.324.592-.245.54.079 1.156.319 1.371.533Zm-40.745 1.855c-.2.5-.35.351-.38-.379-.026-.661.122-1.031.33-.823.209.208.232.749.05 1.202Zm51.421-.601c.214.214-.052.324-.591.245-.54-.079-1.157-.319-1.372-.533-.214-.214.052-.324.592-.245.54.079 1.157.319 1.371.533Zm1.256 1.881c.214.214-.052.324-.591.245-.54-.079-1.157-.319-1.372-.532-.214-.215.052-.325.592-.246.54.079 1.157.319 1.371.533Zm-65.666.72c0 .86-1.817 1.632-2.239.951-.286-.461-.202-.591.214-.334.375.232.86.134 1.077-.217.388-.627.948-.863.948-.4Zm66.61 1.039c1.249.667 1.693 2.486.606 2.486-.334 0-.427-.469-.207-1.043.221-.574.141-.886-.176-.693-.318.193-.942-.043-1.388-.524-.96-1.037-.515-1.123 1.165-.226Zm-57.242.844c-.639.584-8.112 4.136-8.112 3.856 0-.38 6.988-4.022 7.798-4.065.317-.016.458.078.314.209Zm45.897 3.881c0 .172-.566.012-1.256-.358-.691-.369-1.256-.812-1.256-.984 0-.173.565-.012 1.256.357.69.37 1.256.812 1.256.985Zm5.187.277c.65.728.614.749-.221.124-.55-.411-1.157-.591-1.35-.398-.193.192-.522.074-.731-.264-.572-.926 1.409-.463 2.302.538Zm-73.972-.094c-.532.53-2.216.651-1.897.136.16-.257.726-.468 1.26-.468.532 0 .82.149.637.332Zm83.309.557c.781.994.759 1.016-.237.237-1.046-.82-1.379-1.335-.862-1.335.13 0 .625.494 1.099 1.098Zm2.19 1.148c.081.552-.043.814-.276.581-.233-.233-.429-.611-.434-.841-.005-.23-.258-.841-.563-1.359-.448-.762-.394-.793.286-.163.461.428.906 1.23.987 1.782Zm-10.937-.072c.178-.177.717.178 1.198.79.763.97.755 1.022-.067.409-.518-.387-1.39-.631-1.936-.542-.547.09-.995-.224-.995-.697 0-.587.233-.666.738-.248.406.337.884.466 1.062.288Zm-75.89.481c-.193.31-.512.401-.712.203-.199-.198-1.088.276-1.978 1.056l-1.616 1.416 1.424-1.62c1.307-1.486 3.688-2.359 2.881-1.055Zm94.287 1.101c.219.355-.033.46-.591.246-1.088-.417-1.287-.867-.384-.867.325 0 .764.28.975.621Zm-3.45.634c-.518.334-1.366.607-1.884.607-.837 0-.837-.067 0-.607.518-.335 1.366-.608 1.884-.608.837 0 .837.067 0 .608Zm-82.782 1.39c-.45.449-.743.486-.743.094 0-.837.743-1.579 1.162-1.16.178.178-.01.657-.42 1.066Zm-13.055-.03c-.314.507-.083.603.748.312 1.165-.408 1.165-.393-.017.521-.67.518-1.519.937-1.884.932-.366-.005-.241-.283.277-.617.837-.541.837-.61 0-.627-.837-.017-.837-.087 0-.627 1.24-.801 1.423-.779.876.106Zm95.667.272c-.209.208-.751.231-1.204.05-.501-.2-.352-.349.38-.379.662-.027 1.032.121.824.329Zm-2.185 1.249c-.086.312-.44.602-.785.646-.346.043-.769.149-.942.235-.173.086-.597.227-.942.313-.346.086-.699.214-.785.284-.579.465-2.292.435-2.001-.035a.688.688 0 0 1 .945-.222c.322.198.585.05.585-.331 0-.38.494-.608 1.099-.507.605.101 1.037-.142.961-.541-.075-.399.349-.654.942-.568.594.087 1.009.414.923.726Zm-7.379.881c.625.689.995 1.254.822 1.254-.172 0-.825-.565-1.45-1.254-.625-.69-.996-1.254-.823-1.254.173 0 .826.564 1.451 1.254Zm-87.607 0c.518.334.66.607.314.607-.346 0-1.052-.273-1.57-.607-.518-.335-.66-.608-.314-.608.345 0 1.052.273 1.57.608Zm-4.784.973c.214.558.108.809-.247.59-.342-.211-.621-.648-.621-.973 0-.902.45-.703.868.383Zm101.156-.39c.199.321.121.732-.172.913-.293.182-.534-.081-.534-.583 0-1.058.198-1.15.706-.33Zm-94.758 1.263c0 .99-.17 1.078-.903.471-.498-.412-1.002-.679-1.122-.593-.12.086-.57.124-1.002.083-.432-.041.063-.29 1.099-.553 1.036-.264 1.894-.513 1.906-.553.012-.041.022.474.022 1.145Zm96.117 1.678c.079.539-.032.805-.246.591-.214-.215-.454-.83-.534-1.37-.079-.538.031-.804.246-.59.214.214.454.83.534 1.369Zm-1.971.144a2.02 2.02 0 0 1-.983.486c-.317.043-.771.113-1.01.156-.239.044.114.518.785 1.054 1.162.93 1.15.942-.246.264-1.394-.677-1.413-.769-.387-1.901.593-.654 1.341-1.027 1.663-.828.323.199.403.545.178.769Zm-93.562.436c.345-.026 1.025-.299 1.51-.605.587-.371.74-.33.46.122-.231.375-.129.861.228 1.081.788.486.215 1.572-.822 1.559-.45-.007-.372-.253.194-.618.518-.334.8-.634.628-.665l-1.452-.274c-.626-.118-1.281.158-1.457.614-.334.869-1.735.914-2.568.082-.269-.269-.065-.395.453-.279.585.129.907-.215.85-.911-.059-.739.154-.939.629-.589.395.293 1.001.51 1.347.483Zm39.878-.342c-.518.334-1.224.607-1.57.607-.345 0-.204-.273.314-.607.518-.334 1.225-.608 1.57-.608.346 0 .204.274-.314.608Zm16.158.379c-.208.208-.75.23-1.203.049-.501-.2-.352-.349.379-.379.662-.027 1.033.121.824.33Zm-3.768.627c-.208.208-.75.23-1.203.049-.501-.2-.352-.348.379-.379.662-.027 1.033.121.824.33Zm42.534.205c.199.321.121.731-.172.913-.293.181-.534-.082-.534-.584 0-1.057.198-1.15.706-.329Zm-46.302.422c-.208.208-.75.23-1.203.049-.501-.2-.352-.348.379-.379.662-.027 1.033.121.824.33Zm40.443.718c.781.995.759 1.017-.237.237-1.046-.819-1.379-1.334-.862-1.334.13 0 .625.493 1.099 1.097Zm8.207.627c-.182.948-.452 1.363-.6.92-.267-.798.211-2.644.684-2.644.136 0 .098.776-.084 1.724Zm-100.813.565c0 .562-.236.63-.739.215-.406-.337-.969-.403-1.252-.147-.282.255-.34.159-.126-.215.544-.956 2.117-.847 2.117.147Zm95.746.062c.781.995.759 1.017-.237.237-1.046-.819-1.379-1.334-.862-1.334.13 0 .625.493 1.099 1.097Zm-93.404.052c.178.288-.075.523-.563.523-.488 0-.741-.235-.563-.523.177-.287.43-.522.563-.522.132 0 .385.235.563.522Zm96.464.732c.518.334.659.608.314.608-.346 0-1.052-.274-1.57-.608-.518-.334-.66-.608-.314-.608.345 0 1.052.274 1.57.608Zm-92.631.627c-.214.345-.67.627-1.016.627s-.454-.282-.24-.627c.213-.345.67-.627 1.016-.627.345 0 .453.282.24.627Zm-7.343 1.584c-.194.193-.545-.155-.781-.773-.34-.894-.269-.966.352-.351.43.425.622.931.429 1.124Zm4.504-.628c-.437.525-.924.826-1.082.669-.435-.435.45-1.625 1.209-1.625.416 0 .369.36-.127.956Zm.64 1.239c-.43.517-1.083.94-1.452.94s-.123-.414.548-.92c1.575-1.19 1.883-1.197.905-.02Zm53.224 8.269c-.604.158-1.593.158-2.198 0-.604-.157-.11-.286 1.099-.286s1.704.129 1.099.286Zm-6.582.607c-.425.172-1.273.182-1.884.023s-.263-.3.773-.312c1.037-.013 1.536.117 1.111.289Zm-12.1.453c0 .129-.495.623-1.1 1.097-.996.779-1.018.757-.237-.237.82-1.045 1.336-1.377 1.336-.86Zm25.119 1.957c.812.862 1.334 1.568 1.162 1.568-.173 0-.978-.706-1.79-1.568-.811-.862-1.333-1.567-1.161-1.567.173 0 .978.705 1.789 1.567Zm-34.54-.076c0 .129-.494.624-1.099 1.097-.996.779-1.018.757-.237-.237.82-1.045 1.336-1.376 1.336-.86Zm44.669 2.741c.781.994.759 1.016-.237.237-1.047-.82-1.379-1.334-.862-1.334.13 0 .625.493 1.099 1.097Zm-46.926.252c-.245.397.074 1.102.711 1.568.637.464.856.845.487.845-1.003 0-2.248-1.731-1.784-2.481.223-.36.547-.654.72-.654.172 0 .112.324-.134.722Zm8.537-.485c0 .13-.494.624-1.099 1.097-.996.779-1.018.757-.237-.237.82-1.045 1.336-1.376 1.336-.86Zm33.615 3.404c-.193.193-.7 0-1.126-.428-.616-.62-.543-.691.352-.352.619.236.967.587.774.78Zm-1.586 3.726c0 .259-12.691.471-28.201.471s-28.069-.212-27.909-.471c.16-.258 12.85-.47 28.2-.47 15.351 0 27.91.212 27.91.47Zm18.212-.063c-5.152.459-12.422.497-12.152.063.162-.258 3.456-.422 7.322-.365 3.865.059 6.039.194 4.83.302Z" clip-rule="evenodd"/>
  <path fill="#110F0D" fill-rule="evenodd" d="M1.064 91.266v77.438h200.334V13.828H1.064v77.438Zm129.37-61.762c0 .786-.667.786-1.884 0-.762-.492-.672-.61.471-.618.777-.005 1.413.273 1.413.618Zm-2.512.678c.726.508.6.562-.55.236-.978-.276-1.35-.193-1.081.242.225.364-.187.981-.917 1.371s-1.835 1.843-2.457 3.228c-.658 1.469-1.258 2.167-1.439 1.674-.171-.465-.321.544-.335 2.242-.014 1.741.19 2.74.468 2.292.342-.553.611-.321.884.762.215.856 1.366 2.411 2.557 3.455 1.47 1.289 1.898 2.001 1.334 2.218-1.235.472-3.5-1.336-3.071-2.452.229-.597.045-.881-.497-.766-.536.113-.787-.258-.663-.978.109-.638-.073-.993-.405-.788-.795.49-1.364-1.08-1.364-3.767 0-5.16 4.804-10.88 7.536-8.97Zm-4.655 2.505c-.894 1.061-1.624 2.26-1.623 2.665.001.405.547-.157 1.213-1.247s1.725-2.281 2.353-2.646c.628-.364.814-.672.412-.682-.401-.01-1.46.85-2.355 1.91Zm16.672 1.364c.39.728.359 1.49-.088 2.202-.576.915-.62.851-.274-.4.277-1.003.186-1.351-.277-1.065-.447.276-.546.03-.281-.706.224-.621.173-.918-.114-.658-.667.606-2.907-1.39-2.428-2.164.403-.65 2.54 1.072 3.462 2.791Zm-3.225-2.429c0 .13.494.624 1.099 1.097.996.78 1.018.758.237-.237-.821-1.044-1.336-1.376-1.336-.86Zm-68.453 2.271c-1.542.493-1.544.503-.126.564.794.035 2.349.5 3.454 1.034 1.815.876 1.891.876.791 0-.67-.534-1.495-.97-1.832-.97-.337 0-.465-.149-.284-.33 1.948-1.944 7.664 6.507 7.716 11.407.025 2.317-.177 3.592-.497 3.149-.338-.467-.423-.218-.229.666.18.824.056 1.254-.301 1.034-.337-.207-.56.004-.495.47a8.41 8.41 0 0 1 .041 1.626c-.081.861-4.9 4.55-5.943 4.55-.361 0 .627-.813 2.197-1.806 1.568-.994 3.04-2.334 3.27-2.979.35-.98.237-.951-.689.18-1.431 1.748-5.15 3.96-6.759 4.02l-1.256.046 1.256.539c.902.387.284.539-2.198.539-2.482 0-3.1-.152-2.198-.539 1.004-.43 1.046-.548.208-.583-.576-.024-1.565-.211-2.198-.416-.957-.31-.992-.26-.208.303.518.373.716.681.44.687-1.006.018-3.928-1.78-5.151-3.17-.69-.784-.865-1.197-.389-.917.595.349.775.235.576-.363-.16-.479-.668-.87-1.128-.87-.46 0-.953-.424-1.095-.941-.228-.836-.175-.836.478 0 .625.8.68.768.362-.208-.206-.632-.378-1.478-.383-1.882-.007-.55-.124-.552-.47-.008-.254.398-.462-1.056-.462-3.232 0-2.282.222-3.65.525-3.232.317.436.402.163.216-.688-.181-.824-.056-1.254.301-1.034.337.207.56-.004.495-.47a8.458 8.458 0 0 1-.041-1.626c.083-.879 4.912-4.552 5.977-4.547.38.002-.44.699-1.821 1.548-1.382.85-2.307 1.554-2.056 1.565.25.01 1.38-.544 2.512-1.232 1.13-.689 2.762-1.281 3.626-1.317l1.57-.065-1.57-.502c-1.19-.38-.734-.502 1.884-.502s3.074.122 1.884.502Zm64.685 1.254c0 1.672.209 1.881 1.884 1.881 1.734 0 1.884.175 1.884 2.195s-.15 2.194-1.884 2.194c-1.659 0-1.884.217-1.884 1.813 0 1.607-.251 1.842-2.218 2.07-2.681.313-2.828.19-2.723-2.263l.082-1.933.463 2.194.462 2.195.083-2.351c.078-2.213-.029-2.352-1.801-2.352-1.689 0-1.894-.211-1.974-2.038-.086-1.976-.103-1.961-.562.47l-.473 2.509.091-2.508c.089-2.438.149-2.503 2.133-2.304 1.904.19 2.041.075 2.041-1.725 0-1.786.162-1.928 2.198-1.928 2.023 0 2.198.15 2.198 1.881ZM62.763 36.71c-1.124.488-2.75 1.647-3.611 2.575-2.512 2.706-1.805 2.85.87.177 1.342-1.338 2.797-2.434 3.234-2.434.437 0-.165.64-1.34 1.424-1.173.782-2.6 2.349-3.169 3.48-.638 1.27-1.161 1.746-1.363 1.242-.18-.449-.35.402-.378 1.89-.052 2.842.802 5.1 2.254 5.954.474.28.707.762.515 1.07-.19.31.496.998 1.526 1.53 1.892.976 3.494 1.34 2.153.487-.399-.253.917-.46 2.923-.46 2.006 0 3.322.207 2.923.46-.398.254-.442.464-.097.468 1.488.017 4.579-2.521 5.545-4.555 1.56-3.28 1.284-9.208-.38-8.18-.414.255-.521.029-.281-.596.783-2.037-3.524-4.855-6.932-4.535-2.384.223-2.601.173-1.092-.253 1.751-.494 1.773-.535.314-.581-.864-.027-2.49.35-3.614.837Zm78.307 2.67c-.035 2.61-.117 2.786-.66 1.425-.573-1.432-.304-4.404.398-4.404.166 0 .284 1.34.262 2.978Zm-84.136-.995c-.719 1.4-.702 1.417.383.383.624-.596.963-1.255.752-1.465-.21-.21-.72.277-1.135 1.082Zm14.958.367c.972.95 1.189 1.27.481.713-.707-.556-1.851-1.324-2.542-1.705-.69-.381-.907-.702-.481-.713.426-.01 1.57.757 2.542 1.706Zm-4.887 3.606c0 .821.31 1.685.691 1.92.393.242.535 1.204.331 2.226-.222 1.107-.106 1.741.301 1.648.364-.083 1.098.484 1.63 1.26.782 1.14.803 1.404.107 1.376-1.02-.041-4.094-3.727-3.108-3.727.372 0 .676-.505.676-1.12 0-.702-.47-1.12-1.256-1.12-.69 0-1.256.354-1.256.787 0 .465.448.642 1.099.433.919-.295.945-.244.162.307-.548.387-1.169.429-1.496.102-.812-.81.033-2.563 1.048-2.173.65.248.79-.153.572-1.642-.206-1.396-.448-1.724-.828-1.124-.296.466-.542.542-.548.168-.005-.374.172-.86.392-1.08.706-.705 1.483.217 1.483 1.759Zm73.089.033c.244.635.121.817-.354.524-.493-.304-.592-.096-.308.643.567 1.474-2.826 4.917-4.292 4.355-.778-.298-.845-.523-.263-.882.429-.264 1.171-.332 1.648-.15.515.198.794-.016.685-.527-.1-.474.184-.786.632-.694.449.091.746-.19.662-.627-.376-1.953.985-4.215 1.59-2.642ZM74.97 44.043c-.2.5-.35.352-.38-.379-.026-.66.122-1.03.33-.823.209.209.231.75.05 1.202Zm-20.718 2.222c-.16.61-.3.263-.313-.772-.012-1.035.118-1.534.29-1.11.172.425.182 1.272.023 1.882Zm24.492 0c-.16.61-.3.263-.313-.772-.012-1.035.118-1.534.29-1.11.172.425.183 1.272.023 1.882Zm44.782-.167c0 .16.635.63 1.413 1.044 1.281.681 1.332.653.551-.292-.803-.971-1.964-1.416-1.964-.752ZM74.97 47.806c-.2.5-.35.35-.38-.38-.026-.66.122-1.03.33-.823.209.209.231.75.05 1.203Zm23.592-.33c-.431.174-1.138.174-1.57 0-.431-.174-.078-.316.785-.316.864 0 1.217.142.785.316Zm5.325-.037c-.208.209-.75.231-1.203.05-.501-.2-.352-.349.379-.379.662-.027 1.033.121.824.33Zm-9.544 1.483c-1.025.675-2.386 1.873-3.025 2.661-1.093 1.35-1.122 1.355-.5.083.699-1.431 3.705-3.928 4.761-3.954.346-.01-.21.536-1.236 1.21Zm12.916.064c1.003.713 2.126 1.912 2.494 2.664.643 1.314.623 1.312-.493-.067-.639-.788-2-1.986-3.025-2.66-1.025-.675-1.624-1.23-1.332-1.231.292-.002 1.352.58 2.356 1.294Zm21.291-.671c-.518.334-1.225.607-1.57.607-.346 0-.204-.273.314-.607.518-.334 1.224-.608 1.57-.608.345 0 .204.273-.314.608Zm5.652 0c.518.334.659.607.314.607-.346 0-1.052-.273-1.57-.607-.518-.334-.66-.608-.314-.608.345 0 1.052.273 1.57.608ZM72.67 51.627l-2.12 2.017 1.839-2.253c1.01-1.24 1.965-2.148 2.12-2.018.155.13-.673 1.144-1.839 2.254Zm59.498-2.255c-.6.157-1.731.163-2.512.013-.781-.15-.29-.278 1.092-.285 1.381-.007 2.021.116 1.42.273ZM57.857 53.89c.447.724 2.868 2.184 2.868 1.73 0-.144-.741-.748-1.647-1.34-.907-.593-1.456-.768-1.221-.39Zm53.615 1.026c-.193.193-.544-.155-.78-.773-.341-.894-.269-.966.351-.352.43.426.623.932.429 1.125Zm-46.194.102c.605.158 1.593.158 2.198 0 .605-.157.11-.287-1.1-.287-1.208 0-1.703.13-1.098.287Zm36.277 2.248c2.235.206 2.018.26-1.047.265-3.048.005-3.712-.159-3.14-.773.397-.429.869-.547 1.047-.265.179.283 1.592.631 3.14.774Zm11.24 1.082c-.022.62-.217.514-.574-.313-.741-1.724-.741-2.714 0-1.568.335.517.594 1.364.574 1.881Zm-24.009-.51c-.2.5-.35.352-.38-.378-.026-.661.122-1.031.33-.823.209.208.232.75.05 1.202Zm6.128 2.004c-.227.903-.682 1.641-1.01 1.641-.328 0-.422-.282-.209-.627.214-.345.106-.627-.238-.627s-.583.564-.531 1.254c.056.751.544 1.254 1.217 1.254.826 0 1.1.455 1.037 1.725-.074 1.478-.125 1.523-.358.313-.166-.86-.728-1.41-1.442-1.41-1.223 0-2.248-2.04-1.572-3.13.215-.348.94-.633 1.61-.633.72 0 1.22-.429 1.22-1.045 0-.575.154-.89.344-.701.19.19.159 1.083-.068 1.986Zm14.161-.562c.946 1.14.399 2.83-.916 2.83-.675 0-.992.702-1.062 2.352l-.101 2.35-.256-2.078c-.141-1.143.08-2.483.491-2.978.598-.719.543-.9-.271-.9-1.195 0-1.377-1.632-.234-2.093 1.282-.516 1.536-.46 2.349.517Zm-20.91 2.034c-.16.61-.3.263-.313-.771-.013-1.035.117-1.534.29-1.11.171.425.182 1.271.022 1.881Zm18.404-1.472c0 .133.566.388 1.257.569.691.18 1.099.072.905-.24-.338-.546-2.162-.823-2.162-.329Zm-5.271 6.486c-.464.464-2.265-1.052-2.265-1.907 0-.368.415-.122.922.548.841 1.11.869 1.024.314-.973-.967-3.487-.574-4.399.451-1.049.511 1.668.771 3.189.578 3.381Zm2.907-5.655c-.782.15-1.26.535-1.062.855.198.32.061.582-.305.582-.745 0-.884-.826-.246-1.463.23-.23 1.008-.38 1.727-.333 1.204.08 1.195.108-.114.36Zm-5.172.815c0 .262-.706.61-1.57.776-.99.189-1.57.013-1.57-.476 0-.426.707-.775 1.57-.775.864 0 1.57.214 1.57.475Zm14.873 1.367c-.2.5-.349.351-.379-.38-.027-.66.121-1.03.33-.822.208.208.231.75.049 1.202Zm-26.372 3.488c-.158.603-.287.11-.287-1.098 0-1.207.13-1.7.287-1.097.158.604.158 1.59 0 2.195Zm68.076-1.109c1.869 1.028 3.115 1.872 2.77 1.874-.345.002-1.876-.709-3.401-1.58-1.734-.989-2.993-1.36-3.363-.99-.371.37-.273.565.26.524.468-.037 2.546.747 4.616 1.741 2.071.996 4.615 1.828 5.654 1.85l1.89.041-.002 4.172c-.001 2.295-.244 4.023-.54 3.84-.297-.182-.361.228-.143.913.453 1.425-.148 3.446-.889 2.989-.671-.414-1.365 1.51-.847 2.348.262.424.11.48-.418.153-.611-.376-.721-.224-.416.572 2.999 7.802-12.463 9.052-16.67 1.348-.367-.672.857.331 2.719 2.23 1.862 1.897 2.345 2.306 1.072.908-1.273-1.399-3.036-3.813-3.918-5.365-.882-1.552-1.611-2.54-1.62-2.195-.01.345-.295.204-.635-.313-.339-.517-.459-1.787-.266-2.822.243-1.305.167-1.614-.25-1.008-.401.581-.532-.566-.392-3.45.171-3.542.115-3.869-.313-1.812l-.523 2.508.091-2.508c.079-2.153.276-2.483 1.394-2.33.716.097 1.988-.096 2.826-.431.838-.334 1.127-.626.641-.648-.485-.021.928-.986 3.141-2.143 2.212-1.156 4.048-2.144 4.078-2.194.032-.05 1.586.75 3.454 1.778Zm-41.076.13c-.2.499-.349.35-.379-.38-.027-.661.121-1.03.33-.823.208.208.231.75.049 1.202Zm-9.96.855c-.112.536-.454.934-.76.887-.307-.048-.797.29-1.09.75-.401.632-.534.551-.541-.326-.007-.815.294-1.048 1.002-.777.724.278.909.118.648-.56-.2-.521-.07-.948.29-.948s.563.439.451.974Zm43.444.28c-1.209.661-1.972 1.214-1.696 1.228.665.035 4.208-1.804 4.208-2.184 0-.41-.037-.397-2.512.956Zm-49.561 2.849c1.771.914 2.008 2.226.382 2.118-.528-.035-.515-.143.047-.37.503-.201.058-.818-1.207-1.674-1.102-.745-2.112-1.778-2.245-2.296-.164-.636-.017-.585.454.157.383.604 1.539 1.533 2.569 2.065Zm16.705-1.477c-.2.5-.349.352-.379-.379-.027-.66.121-1.03.33-.823.208.208.231.75.049 1.202Zm-9.849.823c-.811.862-1.214 1.572-.894 1.577 1.064.017-1.285 1.225-2.403 1.235-1.639.015-1.327-1.164.425-1.602.838-.21 2.013-.92 2.609-1.58.597-.658 1.233-1.198 1.412-1.198.18 0-.337.706-1.149 1.568Zm38.139-.562c-.209.208-.751.23-1.204.05-.501-.2-.352-.349.38-.379.662-.027 1.032.121.824.33Zm19.468 0c-.209.208-.751.23-1.203.05-.502-.2-.353-.349.379-.379.662-.027 1.032.121.824.33Zm-76.003 3.533c-.15.78-.279.29-.286-1.09-.007-1.38.117-2.018.274-1.418.157.6.162 1.728.012 2.508Zm28.873-1.286c-.2.5-.349.352-.379-.379-.027-.66.121-1.03.33-.823.208.209.231.75.049 1.202Zm.628 2.508c-.2.5-.349.352-.379-.379-.027-.66.121-1.03.33-.823.208.209.231.75.049 1.203ZM99.746 74.65c.414 0 .571.181.349.403-.612.61-2.323-1.045-2.278-2.204.027-.691.223-.565.608.39.313.776.907 1.41 1.32 1.41Zm-1.704-.055c1.318 1.454 5.854 1.354 6.959-.154.7-.956 1.733-.968 10.674-.118 1.037.099 2.254.212 2.707.253.452.04.665.326.474.635-.191.31.09.728.624.934.604.23.811.114.548-.31-.804-1.3 1.865.528 3.982 2.726 2.409 2.5 6.966 11.082 6.549 12.33-.173.518-.007.69.414.43.462-.285.56-.065.289.642-.279.726-.176.93.314.627.49-.302.592-.098.314.627-.252.656-.164.922.224.682.736-.454 3.757 5.614 3.459 6.948-.111.495.095.709.464.481.416-.257.508-.008.249.668-.273.707-.173.927.29.642.821-.508 1.985 1.426 1.564 2.599-.158.442.028.724.415.627.386-.097 1.19.67 1.785 1.705.596 1.034 1.437 2.106 1.869 2.382.924.591 1.056 2.32.176 2.32-.334 0-.431-.493-.213-1.097.216-.604.174-.899-.095-.657-.993.895-5.466-5.4-4.894-6.888.24-.625.118-.812-.345-.527-.464.287-2.062-2.236-4.537-7.165-2.1-4.185-3.478-7.398-3.061-7.14.502.309.596.204.278-.31-.452-.731-3.48 1.54-5.714 4.286-.427.525-1.046.675-1.536.373-.513-.317-.668-.26-.413.152.57.92-1.53 1.608-2.359.773-.491-.494-.338-.555.547-.218.863.329.498-.405-1.232-2.47-1.353-1.616-2.575-2.939-2.717-2.939-.142 0 .083.411.5.913.864 1.04 1.384 10.361.631 11.314-1.345 1.701-.899 6.698.675 7.567.849.47 1.261.859.916.866-.346.007-1.018-.233-1.493-.534-.545-.345-1.847-.113-3.525.628-1.462.645-4.888 1.6-7.613 2.12l-4.954.947 3.881-.297c2.134-.162 5.384-.866 7.222-1.563 4.486-1.703 9.324-.204 19.292 5.979 1.519.942 2.578 1.414 2.351 1.048-.226-.365-.123-.76.23-.878.353-.117-.899-2.423-2.782-5.124-2.126-3.05-3.279-5.285-3.042-5.899.244-.637.128-.834-.328-.553-.841.52-6.562-8.888-5.978-9.832.577-.932 2.054 1.406 1.612 2.554-.222.58-.116.821.262.589.351-.217 2.306 2.303 4.346 5.601 2.039 3.297 6.038 9.101 8.888 12.897 2.849 3.797 5.181 7.064 5.181 7.26 0 .196-1.272-1.278-2.826-3.277-1.555-1.998-2.826-3.263-2.826-2.811 0 .499-.363.344-.922-.395-.508-.669-.932-.899-.942-.51-.025.876 1.537 2.232 2.018 1.752.194-.194 1.204.882 2.244 2.392 1.041 1.51 2.301 3.085 2.802 3.499 1.501 1.244.35 5.542-2.107 7.87-1.14 1.08-1.671 1.431-1.179.781.747-.989.362-.914-2.36.463-5.896 2.983-20.646 6.115-33.437 7.1l-4.76.366-1.125-4.825c-.618-2.654-1.261-5.184-1.43-5.621-.226-.59 3.398-1.401 14.009-3.131 15.003-2.448 16.272-2.71 15.731-3.25-.182-.183-2.791.096-5.797.62-4.879.85-5.902.851-9.556.005-2.274-.527-5.387-.802-7.009-.621-2.133.239-2.496.18-1.349-.222 1.005-.351 1.19-.572.513-.612-.58-.034-2.417.627-4.082 1.471l-3.025 1.534 2.683.43c3.116.499 4.175 1.515 1.593 1.528-2.723.013-4.59.676-4.59 1.632 0 .476-.089.867-.198.867-5.988 0-9.698 2.323-10.242 6.411-.226 1.704-.584 2.826-.795 2.495-.21-.333-2.926-1.234-6.035-2.003-9.286-2.298-12.728-4.273-14.397-8.26-.906-2.167-.882-2.258 1.537-5.596 1.351-1.866 2.466-3.651 2.478-3.967.03-.872-5.131 6.661-5.32 7.764-.09.529-.516.879-.944.779-.45-.105-.632.197-.433.717.49 1.276-4.765 5.453-5.695 4.525-.197-.196-.017-.357.4-.357.58 0 .573-.197-.025-.836-.802-.857-2.407-1.15-2.407-.439 0 .219.339.736.753 1.15.586.585.412.75-.785.743-.846-.006-1.248-.217-.892-.47.845-.603.668-3.163-.283-4.109-.577-.572-.665-.241-.387 1.453.223 1.358.15 1.877-.191 1.359-.823-1.247-.494-3.582.474-3.371.504.11.699-.178.489-.723-.191-.498.047-1.427.531-2.064 1.327-1.748 1.12-2.098-1.242-2.098-4.278 0-3.4-2.334 1.386-3.688 1.474-.417 3.623-1.586 4.777-2.596 1.153-1.012 2.306-1.634 2.561-1.383.256.251.378.033.273-.485-.276-1.353 1.267-3.873 2.069-3.379.399.247.55.06.369-.452-.448-1.261 1.31-4.45 2.164-3.924.468.289.567.072.294-.639-.279-.725-.176-.929.314-.627.49.303.592.098.314-.627-.279-.725-.176-.929.314-.627.49.303.592.098.314-.627-.279-.725-.176-.93.314-.627.49.303.592.098.314-.627-.279-.725-.176-.93.314-.627.483.298.595.104.334-.576-.518-1.347 2.02-7.434 2.878-6.904.405.25.502.004.252-.647-.51-1.326.784-4.265 1.645-3.735.393.243.482-.02.229-.679-.278-.725-.176-.93.314-.627.48.296.596.108.343-.551-.272-.707-.073-.94.678-.796.762.146 1.096-.266 1.18-1.454.195-2.803.566-4.432 1.122-4.938.293-.265.302-.086.02.398-.352.608-.276.735.247.413.417-.258.642-.795.5-1.194-.378-1.069 1.96-4.122 4.204-5.489 1.956-1.19 4.044-1.713 2.268-.567-1.064.687-.599.817.887.248.544-.209.852-.603.683-.875-.169-.273.13-.663.665-.868.555-.213.807-.107.587.248-.5.808 0 .77 3.772-.277 4.5-1.25 6.843-1.188 8.115.215Zm55.769 1.464c-2.465 2.46-2.661 2.54-3.765 1.542-2.063-1.863-2.852-.001-.837 1.972 1.59 1.557 1.596 1.582.095.407l-1.6-1.255 1.536 1.74 1.535 1.737 3.332-3.284c1.832-1.807 3.331-3.63 3.331-4.053 0-1.664-1.141-1.289-3.627 1.194Zm-73.315 1.583c-.697.596-1.82 1.789-2.496 2.651-.676.862-.035.452 1.424-.911 2.402-2.244 2.96-2.878 2.496-2.837-.086.007-.727.501-1.424 1.097Zm43.001 1.71a487.761 487.761 0 0 0 3.047 3.45c.161.171-.006-.252-.369-.942-.365-.69-1.736-2.241-3.047-3.448-2.266-2.086-2.248-2.04.369.94Zm-81.418 2.5c1.227.511 2.42 1.235 2.651 1.608.28.453.792.34 1.55-.345 2.7-2.44 7.537-.502 7.537 3.02 0 2.423-7.998 9.55-9.348 8.331-1.59-1.436-2.368-1.246-1.014.249 1.558 1.72 2.08 1.605 4.997-1.098l2.539-2.351-2.483 2.665c-4.646 4.987-14.63-5.55-10.796-11.394 1.239-1.887 1.42-1.916 4.367-.686Zm2.208-.164c.607.606 1.044.597 2.07-.043.716-.447 1.415-.699 1.554-.56.99.988-2.908 1.773-4.225.85-.799-.558-1.164-1.015-.811-1.015.354 0 .989.346 1.412.768Zm8.9.797c.81.861 1.353 1.645 1.208 1.744-.146.098-1.024-.606-1.951-1.565-.928-.96-1.472-1.744-1.209-1.744.264 0 1.142.704 1.951 1.565Zm-14.756-.31c-.491.793.34.793 1.57 0 .812-.525.795-.61-.12-.619-.584-.005-1.237.273-1.45.618Zm104.803.345c.214.558.108.81-.247.59-.342-.21-.621-.648-.621-.973 0-.902.45-.703.868.383Zm-68.895 3.443c-.397 1.05-.815 1.63-.928 1.29-.203-.606.942-3.198 1.411-3.198.131 0-.087.858-.483 1.908Zm82.821 1.732c-3.064 3.525-3.069 3.539-.421 1.063 2.231-2.086 4.384-4.8 3.704-4.668-.099.02-1.576 1.641-3.283 3.605Zm-102.715.053c0 .306-.57 1.224-1.265 2.037l-1.265 1.48 1.108-2.033c1.162-2.133 1.422-2.404 1.422-1.484ZM84.9 90.07c-1.763 2.308-2.727 2.5-6.277 1.24-.816-.29-.706-.108.314.516.864.53 1.203.972.755.984-.448.012-1.438-.633-2.198-1.435-2.245-2.367-3.36-2.469-4.223-.39-.418 1.008-1.007 1.68-1.308 1.493-.3-.185-.362.146-.134.738.297.772.187.936-.388.582-.578-.357-.7-.167-.436.68.202.647.096 1.6-.237 2.117-.332.517-.612.658-.623.313-.024-.801-1.237 1.043-1.237 1.881 0 .345.274.204.609-.313.837-1.293.782-.398-.092 1.518-.396.868-1.009 1.399-1.362 1.181-.394-.243-.483.019-.23.679.247.642-.346 2.577-1.472 4.806-1.8 3.561-2.9 4.964-2.062 2.632.513-1.428-.053-.874-1.04 1.016-.587 1.126-.593 1.374-.022 1.022.58-.358.587-.156.031.882-.397.741-.988 1.184-1.312.984-.324-.2-.432.046-.239.546.192.5.004 1.123-.418 1.383-.524.323-.606.213-.26-.347.329-.531.262-.669-.19-.39a1.03 1.03 0 0 0-.404 1.194c.685 1.785-5.144 6.395-7.382 5.838-.942-.234-.791-.056.435.512 1.035.48 1.898 1.253 1.92 1.719.095 1.996 1.026 3.099 1.962 2.324.497-.412.854-.49.794-.173-.242 1.274.082 1.635.876.976.632-.523.838-.472.838.21 0 .496-.222.766-.492.599-.27-.167-.809.287-1.196 1.009-.843 1.573-2.64.575-2.097-1.166.261-.836.125-.802-.665.165-.952 1.168-1.44 2.887-.573 2.021.231-.23.938.049 1.57.62.748.677 1.15.774 1.15.278 0-.419.287-.584.638-.367.907.56.087 1.628-1.092 1.421-.542-.096-1.102.157-1.244.561-.38 1.081 2.041.305 3.268-1.048.675-.745.795-1.27.355-1.542-1.123-.693-.746-1.536.574-1.282.684.132 1.178 0 1.1-.293-.193-.707 7.773-12.559 8.44-12.559.757 0 .639 1.735-.15 2.221-.369.228-.528.786-.353 1.239.174.454-.13.997-.675 1.206-.546.209-.856.517-.69.684.168.166 2.138-.898 4.38-2.367 7.604-4.982 16.648-8.919 18.525-8.065 2.24 1.019 2.612.39.413-.697-2.001-.989-8.399 1.543-17.475 6.916-2.418 1.431-3.623 1.973-2.678 1.203.945-.77 5.325-3.243 9.734-5.497 6.76-3.456 8.039-4.341 8.162-5.644.135-1.419.097-1.443-.469-.29-.462.942-.538.552-.305-1.568.235-2.142.16-2.519-.314-1.568-.473.952-.549.575-.314-1.567.235-2.142.16-2.52-.314-1.568-.473.952-.549.575-.314-1.567.213-1.94.137-2.43-.244-1.568-.418.946-.56.5-.574-1.811-.01-1.687-.356-3.274-.766-3.527-.534-.33-.55-.584-.056-.889.724-.446 2.19-2.865 1.737-2.865-.144 0-1.037 1.015-1.984 2.254Zm-1.016 2.98c-.56.409-2.192 3.078-3.63 5.931-1.604 3.186-2.878 5.024-3.302 4.762-.412-.254-.565-.075-.38.446.533 1.5-2.323 6.482-3.352 5.847-.746-.461 3.035-6.905 3.917-6.675.404.105.537-.238.314-.817-.246-.641-.132-.843.319-.565.425.263.581.09.395-.438-.169-.479.488-2.459 1.46-4.4.971-1.942 1.567-3.75 1.324-4.02-.243-.268.05-.312.653-.097.601.216 1.45.007 1.884-.463.434-.47.93-.72 1.102-.554.173.165-.145.635-.704 1.044Zm69.149-.585c-.407.406-.831.406-1.238 0-.407-.406-.194-.618.619-.618s1.025.212.619.618Zm-33.947.21c-.173 1.84-1.127 2.864-1.169 1.255-.023-.949.239-1.724.585-1.724.345 0 .607.211.584.47Zm5.068 6.39c0 .325.279.763.621.974.355.219.461-.032.246-.59-.417-1.086-.867-1.285-.867-.383Zm1.884 3.173c.369.69.813 1.254.986 1.254.172 0 .012-.564-.358-1.254-.37-.69-.814-1.254-.986-1.254-.173 0-.012.564.358 1.254Zm3.559 5.653c.616 1.04 1.776 2.662 2.579 3.605.803.943.417.092-.858-1.891-2.416-3.757-3.667-5.004-1.721-1.714Zm-55.684.617c-.37.69-.53 1.254-.358 1.254.173 0 .616-.564.986-1.254.37-.69.53-1.254.358-1.254-.173 0-.616.564-.986 1.254Zm52.069 3.454c3.015 1.555 6.027 3.253 6.694 3.774.667.522-1.897-.656-5.696-2.617-7.387-3.812-7.687-3.984-6.956-3.984.262 0 2.943 1.272 5.958 2.827Zm19.811 2.284c.855.742 1.376 1.636 1.158 1.988-.239.385.018.48.649.239.574-.22 1.676-.167 2.448.117l1.403.519-1.444.458c-1.582.501-6.726-2.359-6.089-3.386.187-.302-.015-.692-.449-.867-.62-.249-.622-.328-.009-.367.429-.027 1.479.557 2.333 1.299Zm-10.963 1.159c.738 1.035 1.482 1.881 1.655 1.881.173 0-.289-.846-1.027-1.881-.738-1.034-1.483-1.881-1.656-1.881-.172 0 .29.847 1.028 1.881Zm9.42-.984c0 .172.565.615 1.256.984.691.37 1.256.53 1.256.358 0-.173-.565-.615-1.256-.985-.691-.369-1.256-.529-1.256-.357Zm-76.22 3.649-1.13 2.038 1.294-1.567c1.148-1.391 1.658-2.509 1.145-2.509-.099 0-.687.918-1.31 2.038Zm-9.898-.368c-.473.573-1.709 1.56-2.745 2.192-1.036.632-1.527 1.151-1.09 1.152.789.003 5.846-4.337 5.092-4.37-.217-.009-.782.452-1.257 1.026Zm96.48 1.152c0 .956-.523 1.329-2.198 1.568-1.5.213-2.262.681-2.397 1.473-.111.645.077.99.423.777 1.196-.738 3.181 3.007 2.82 5.318-.506 3.237-1.039 3.198-.619-.044.33-2.551.278-2.708-.539-1.632-.497.654-.778 1.393-.624 1.641.153.249-.272.419-.947.378-.675-.04-1.163.209-1.085.553.078.345.707.575 1.398.51.694-.064.873.04.4.233-.723.295-.723.439 0 .92.552.368.187.422-1.028.153-1.036-.229-2.308-.765-2.826-1.191-.518-.426-1.253-.661-1.633-.522-.767.281-2.169-1.158-2.361-2.423-.068-.448-.349-1.175-.623-1.614-.311-.495-.214-.734.253-.627.414.095.895-.22 1.07-.699.212-.584.051-.707-.49-.373-.532.329-.652.249-.352-.237.25-.404.718-.572 1.039-.373.322.198.585.032.585-.37s.424-.569.942-.37c.584.223.942-.003.942-.597 0-.541.303-.772.695-.529.458.282.563.013.308-.792-.318-.999.039-1.342 1.973-1.891 3.39-.963 4.874-.732 4.874.76Zm-5.191.13c-.781.15-1.249.553-1.037.895.212.342-.024 1.098-.523 1.679-1.491 1.737-1.721 2.417-.817 2.417.503 0 .715-.408.515-.993-.231-.679.002-.596.735.261.59.69.867.858.616.373-.294-.564-.208-.726.24-.449.383.236.545.915.359 1.507-.292.931-.208.918.622-.094.93-1.135.957-1.132.863.113-.053.707-.318 1.149-.587.982-.27-.166-.326.206-.125.828.299.922.247.961-.287.206-.564-.796-.71-.775-1.068.157-.229.594-.684 1.08-1.013 1.08-.329 0-.397-.326-.15-.724.267-.432.173-.555-.233-.303-.375.231-.888.063-1.14-.374-.252-.436-.227-.584.056-.329.573.519 2.199-.604 2.199-1.519 0-.323-.353-.367-.785-.098-1.227.765-2.312.789-2.764.059-.227-.368-.146-.503.181-.301.328.202.64-.248.695-1 .097-1.334.071-1.33-1.066.168-1.214 1.599-1.2 3.535.033 4.689.54.505.543.331.013-.7-.465-.903-.491-1.506-.077-1.761.347-.214.631-.161.633.118.002.279.728 1.354 1.615 2.388.887 1.035 1.454 1.56 1.26 1.169-.374-.755 1.09-2.328 1.648-1.771.18.18.765-.339 1.3-1.154 1.023-1.559.542-3.26-.923-3.26-1.893 0-1.102-3.275.949-3.933 2.017-.647.803-.852-1.937-.326Zm-100.339 3.358c-.228.369-.245.84-.038 1.047.207.207.377.054.377-.34 0-.509.465-.539 1.61-.104 2.082.79 4.186.828 2.786.051-1.766-.982-4.314-1.333-4.735-.654Zm4.055 3.59c-.971 1.789-1.054 2.934-.331 4.574.46 1.046 2.267 1.391 2.267.433 0-.307.353-.356.785-.108.456.262.566.212.262-.12-.289-.313-.854-.574-1.256-.579-.432-.005-.684-.849-.613-2.053.079-1.344-.116-1.898-.568-1.618-.423.261-.509.134-.221-.33.357-.577.674-.582 1.353-.02.52.43.886.475.886.107 0-1.746-1.67-1.933-2.564-.286Zm41.476-.645c-2.203 1.117-2.29 1.116-12.065-.071-1.295-.157-2.355-.074-2.355.184 0 .259 2.897.809 6.437 1.223 3.54.414 7.426.881 8.635 1.039l2.198.286-1.831-.715-1.831-.715 2.145-1.141c2.759-1.467 1.544-1.549-1.333-.09Zm17.765 1.193c-.431.174-1.137.174-1.57 0-.431-.174-.078-.316.785-.316.864 0 1.218.142.785.316Zm-55.642 1.136c-.194.504-.038 1.111.345 1.347.403.249.523.147.283-.24-.228-.368-.074-.783.343-.923.533-.176.554-.378.07-.676-.379-.234-.847-.013-1.041.492Zm51.874-.509c-.431.174-1.138.174-1.57 0-.431-.174-.078-.316.785-.316.864 0 1.217.142.785.316Zm-3.768.627c-.431.174-1.138.174-1.57 0-.431-.174-.078-.316.785-.316.864 0 1.217.142.785.316Zm30.616 7.736c-.518.334-1.225.608-1.57.608-.346 0-.204-.274.314-.608.518-.334 1.224-.607 1.57-.607.345 0 .204.273-.314.607Zm-6.451 2.26c-.208.208-.75.231-1.203.05-.501-.2-.352-.349.38-.379.661-.027 1.032.121.823.329Zm-2.512.627c-.208.208-.75.231-1.203.05-.501-.2-.352-.349.379-.379.662-.027 1.033.121.824.329Zm-2.512.627c-.208.208-.75.231-1.203.05-.501-.2-.352-.349.379-.379.662-.027 1.033.121.824.329Zm-28.26 1.881c-.208.208-.75.231-1.203.05-.501-.2-.352-.349.38-.379.661-.027 1.032.121.823.329Zm5.207 1.037 2.813.247-3.229.109c-2.484.084-3.322-.128-3.626-.919-.303-.789-.205-.872.416-.357.447.37 2.078.784 3.626.92Zm-19.804 2.986c-2.569 3.495-2.432 4.149.951 4.545l2.198.258-2.278.101c-3.826.168-4.183-1.155-1.382-5.128 1.322-1.876 2.508-3.315 2.636-3.197.128.118-.829 1.657-2.125 3.421Zm10.62-2.583c-1.073.653-2.582 2.208-3.354 3.455-.771 1.246-2.001 2.586-2.733 2.977-1.03.55-.912.252.528-1.327 4.893-5.37 5.873-6.297 6.66-6.294.467.001-.03.536-1.102 1.189Zm18.129-.75c-.772.148-2.185.152-3.14.009-.954-.145-.323-.266 1.404-.271 1.727-.005 2.509.113 1.736.262Zm4.134 1.185c.917.549 2.607 2.26 3.756 3.8 1.15 1.541 2.704 3.048 3.455 3.351 1.019.41 1.096.558.302.588-.584.022-2.279-1.412-3.768-3.187-1.489-1.775-3.554-3.749-4.591-4.387-1.036-.638-1.644-1.161-1.352-1.162.292-.001 1.281.447 2.198.997Zm9.537 1.195c.853 1.16.839 1.19-.177.394-.605-.474-1.099-1.156-1.099-1.516 0-.36.079-.537.177-.393.098.144.592.825 1.099 1.515Zm2.99 4.976c-.101.704-.608 1.311-1.126 1.348-.544.039-.61-.044-.157-.196 1.117-.374.97-2.047-.314-3.57l-1.099-1.304 1.44 1.22c.828.7 1.362 1.765 1.256 2.502Zm-6.778 5.213c0 .259-12.691.471-28.201.471s-28.069-.212-27.909-.471c.16-.258 12.85-.47 28.2-.47 15.351 0 27.91.212 27.91.47Zm20.096 0c0 .259-3.223.471-7.163.471-3.939 0-7.03-.212-6.87-.471.159-.258 3.382-.47 7.162-.47 3.779 0 6.871.212 6.871.47Z" clip-rule="evenodd"/>
  <path fill="#110F0D" fill-rule="evenodd" d="M1.064 91.266v77.438h200.334V13.828H1.064v77.438Zm129.37-61.83c0 .307-.76.75-1.689.982-6.507 1.631-8.971 9.372-4.574 14.37 1.011 1.152 1.684 2.246 1.497 2.433-.189.188.03.311.485.275.454-.037 1.857.158 3.118.434 8.184 1.788 13.818-8.846 7.982-15.068-.694-.74-.999-1.507-.678-1.705 3.196-1.972 5.682 8.489 3.109 13.082-6.083 10.856-23.05 2.755-18.628-8.894 1.478-3.897 9.378-8.874 9.378-5.909ZM70.607 33.93c11.8 4.107 9.269 22.62-3.234 23.656-5.591.463-13.31-4.483-12.063-7.73.207-.538.131-.827-.168-.642-.299.184-.723-.558-.942-1.65-.509-2.539.167-6.267 1.039-5.73.362.224.47.106.243-.262-.543-.877.192-2.753.905-2.312.305.188.398-.066.206-.567-.372-.968 2.688-3.645 5.407-4.728 2.085-.831 6.27-.848 8.607-.035Zm62.339 1.218c0 1.672.209 1.881 1.884 1.881 1.734 0 1.884.175 1.884 2.195s-.15 2.194-1.884 2.194c-1.675 0-1.884.21-1.884 1.881 0 1.673-.209 1.881-1.884 1.881-1.037 0-2.097.07-2.355.157-.859.286-.905-3.455-.051-4.057.551-.388-.085-.484-1.868-.28l-2.704.308.192-2.296c.182-2.183.293-2.286 2.233-2.093 1.904.191 2.041.076 2.041-1.724 0-1.786.162-1.928 2.198-1.928 2.023 0 2.198.15 2.198 1.881Zm-69.323 1.998c.174.28.038.51-.3.51-.34 0-1.448.697-2.462 1.55-1.015.853-2.041 1.355-2.28 1.117-.239-.239-.23.098.02.747.297.775.22 1.037-.223.764-.438-.27-.55.06-.322.936.195.744.098 1.194-.215 1.001-.314-.194-.57.582-.57 1.723s.242 1.926.538 1.743c.297-.183.355.245.13.95-.846 2.664 5.008 6.11 9.517 5.601 8.023-.903 10.115-11.803 3.01-15.684-1.568-.856-7.274-1.655-6.843-.958Zm3.382 5.213c0 .821.282 1.668.628 1.881.345.213.628.961.628 1.662 0 .702.585 2.019 1.301 2.927 1.781 2.26.373 2.55-1.55.319-1.034-1.201-1.332-2.008-.923-2.5.64-.772-.468-1.92-1.172-1.217-.208.207.009.377.48.377.668 0 .691.167.105.752-.56.56-.935.571-1.465.042-.838-.837-.214-2.933.706-2.366.422.26.422-.158 0-1.267-.667-1.75-.304-3.07.677-2.464.322.198.585 1.032.585 1.854Zm-12.438 3.135c.013 1.035.154 1.382.313.772.16-.61.149-1.457-.023-1.881-.172-.425-.302.075-.29 1.109Zm52.719 3.548c2.957 2.252 5.061 6.906 7.531 16.66 1.983 7.83 2.206 8.337 3.992 9.072 4.26 1.753 6.918 5.207 12.593 16.356 3.022 5.938 6.443 12.283 7.601 14.1 1.159 1.818 2.107 3.551 2.107 3.852 0 .302.424.71.942.909 1.045.401 1.304 2.281.314 2.281-.346 0-.628-.262-.628-.582 0-.32-.398-.98-.884-1.465-1.645-1.642-5.214-7.638-8.811-14.802l-3.58-7.13-1.991 1.8c-1.096.99-2.091 2.019-2.212 2.284-.528 1.162-3.971 2.412-4.785 1.738-.941-.78-1.578.85-1.593 4.08-.005 1.052-.269 2.181-.588 2.509-.319.327-.659 1.943-.756 3.591l-.175 2.996 8.217 4.058c4.52 2.233 9.153 4.976 10.296 6.097 1.143 1.12 1.67 1.427 1.173.681-.498-.746-3.06-4.555-5.694-8.465-6.074-9.017-8.933-14.11-8.183-14.573.324-.2 1.798 1.68 3.275 4.178 3.937 6.654 9.238 14.415 14.345 21 4.244 5.474 6.312 7.625 4.124 4.291-.572-.873-.739-1.665-.397-1.876.622-.384 2.824 2.526 2.824 3.732 0 .383.365.698.81.698.445 0 .676-.216.513-.48-.163-.263-.024-.647.31-.853.334-.206.914.198 1.288.897.638 1.19.418 1.546-.822 1.331-.285-.05-.33.212-.101.583.287.464.728.421 1.42-.141.861-.698.944-.655.587.297-.348.925-.223 1.008.74.494 1.625-.869 1.341-2.387-1.108-5.909-1.718-2.472-1.957-3.166-1.256-3.665.668-.475.615-.535-.235-.262-.604.194-1.099.08-1.099-.254s.635-.619 1.413-.632c1.186-.021 1.086-.167-.625-.909-2.535-1.101-5.754-4.206-4.717-4.552.411-.136 1.503.452 2.427 1.308.925.856 2.983 1.891 4.575 2.301 1.591.41 3.267.858 3.724.996 1.789.538.431 2.446-1.967 2.762l-2.379.313 1.966 2.661c3.566 4.827.126 10.193-4.072 6.35-.328-.3-1.081-.546-1.675-.546-.592 0-1.657-.776-2.366-1.724l-1.289-1.725-.019 2.016c-.023 2.362-3.446 6.714-4.856 6.175-.556-.214-.715-.07-.432.388.303.489.099.592-.628.313-.594-.227-.918-.155-.722.162.461.745-1.94 1.511-2.894.922-.485-.299-.56-.175-.221.372.379.613.163.733-.846.469-.869-.227-1.206-.114-.942.314.264.427-.073.54-.942.313-.859-.224-1.206-.113-.947.306.262.423-.181.547-1.236.345-1.017-.194-1.495-.071-1.252.321.254.408-.368.488-1.746.223-1.505-.288-1.86-.227-1.196.207.76.497.661.618-.514.626-2.119.014-1.119 2.598 3.282 8.481 3.434 4.59-4.948 3.779-8.98-.869-1.758-2.026-3.977-3.979-4.929-4.341-2.2-.835-10.72-1.46-9.515-.698.57.36-.249.556-2.356.562-2.244.006-3.337-.267-3.579-.897-.782-2.035-6.375.797-8.567 4.338-2.249 3.633-7.544 5.422-9.408 3.18-.617-.743-.278-1.585 1.807-4.492 3.46-4.823 3.438-4.864-3.325-6.49-8.24-1.982-12.286-4.131-13.979-7.423l-1.344-2.614-1.7 2.226c-2.936 3.844-8.371 5.217-9.64 2.436-.998-2.186-.953-2.468.84-5.303 1.988-3.145 1.99-3.135-.591-3.135-4.278 0-3.4-2.334 1.386-3.688 5.963-1.686 15.777-17.453 20.929-33.62 1.29-4.046 5.74-9.323 9.338-11.074l3.43-1.669 1.07-8.503c1.451-11.554 3.616-16.063 8.712-18.15 2.469-1.012 9.233-.085 11.393 1.56Zm-12.39-.168C86.39 54.052 84.04 75.588 92.181 73.74c3.339-.758 4.659-.842 4.984-.316.259.418.584-.02.78-1.052.26-1.353-.088-2.254-1.484-3.842-1.004-1.14-1.825-2.75-1.825-3.576 0-1.08-.397-1.559-1.413-1.703-1.035-.147-1.413-.62-1.413-1.768 0-1.024.49-1.782 1.413-2.186.778-.34 1.413-.976 1.413-1.411 0-.436.574-.792 1.276-.792.702 0 1.45-.454 1.663-1.009.35-.912.447-.905.99.063.502.897 1.162 1.004 3.989.651 2.784-.347 3.386-.254 3.386.522 0 .564.696 1.024 1.727 1.142 2.227.256 2.871 2.921.835 3.453-1.029.268-1.306.838-1.306 2.691 0 1.403-.507 2.995-1.26 3.95-1.296 1.645-.802 5.412.597 4.548.327-.201 2.659.064 5.182.589 2.523.526 4.638.956 4.699.956.368.002-4.495-17.109-5.522-19.43-3.037-6.861-10.371-9.771-15.998-6.346Zm1.841 8.726c-.855.122-1.506.8-1.768 1.842-.228.908-.89 2.011-1.472 2.453-.96.727-.926.804.355.822 1.093.016 1.413.385 1.413 1.63 0 2.317 1.013 3.876 3.278 5.045 1.786.922 1.879 1.103.924 1.8-2.225 1.625-1.245 3.267 2.448 4.098 2.542.573 3.637-.413 3.05-2.746-.346-1.377-.656-1.549-2.225-1.236-2.165.433-2.515-.752-.41-1.39 2.588-.783 4.239-2.841 4.239-5.283 0-1.25.34-2.613.754-3.026.586-.585.534-.753-.236-.753-.576 0-1.132-.719-1.334-1.724-.349-1.743-3.623-2.299-9.016-1.532Zm3.974 3.413c.001.431.203 1.842.447 3.135.453 2.397-.02 2.948-1.371 1.599-.839-.837-1.035-2.003-.257-1.523.273.169.384-.662.246-1.844-.14-1.183.014-2.15.34-2.15.325 0 .593.352.595.783Zm4.602 0c0 .431-.707.825-1.57.874-1.535.088-1.99-.403-1.151-1.24.724-.723 2.721-.454 2.721.366Zm-6.28.397c0 .305-.706.689-1.57.854-1.052.2-1.57.018-1.57-.554 0-.493.665-.854 1.57-.854.864 0 1.57.25 1.57.554Zm56.846 3.932c1.732.912 4.302 1.967 5.711 2.346l2.56.688-.126 5.176c-.168 6.95-6.018 17.974-8.669 16.338-.343-.211-.44-.09-.217.27.223.361-.299 1.117-1.16 1.68-1.751 1.146-5.146-.233-4.284-1.739.225-.393.173-.5-.116-.24-.621.564-3.545-2-3.101-2.717.168-.271-.025-.697-.43-.947-.503-.31-.567-.175-.204.427.454.752.372.752-.559-.003-.6-.487-.941-1.278-.756-1.757.185-.48.086-.72-.219-.531-.781.482-3.359-5.242-2.992-6.644.167-.637.075-1.018-.204-.846-.612.378-1.538-6.877-.992-7.76.211-.341 1.862-1.06 3.669-1.597 1.808-.538 4.416-1.657 5.798-2.487 1.381-.83 2.653-1.465 2.826-1.412.173.054 1.732.844 3.465 1.755Zm-51.194.822c0 .505-.565 1.22-1.256 1.59-1.464.782-1.739-.133-.471-1.57 1.024-1.161 1.727-1.17 1.727-.02ZM140.64 71.2c.007 1.38.136 1.87.286 1.09.15-.78.144-1.909-.013-2.508-.157-.6-.28.039-.273 1.418Zm13.171 4.858c-2.465 2.46-2.661 2.54-3.765 1.542-.841-.76-1.357-.863-1.849-.371-.493.492-.131 1.18 1.295 2.463l1.98 1.78 2.983-2.918c1.641-1.605 2.983-3.264 2.983-3.688 0-1.666-1.141-1.292-3.627 1.192ZM43.947 81.953c-.153.811 2.15.4 2.695-.482 1.387-2.242 7.604.555 7.886 3.548.21 2.24-.074 3.504-.704 3.116-.346-.213-.467.017-.274.52.337.875-3 3.844-3.622 3.222-.161-.16-.977.483-1.813 1.43l-1.52 1.721 1.884-1.562c1.704-1.412 1.678-1.338-.28.784-4.388 4.755-14.122-6.174-10.464-11.747 1.148-1.75 6.528-2.226 6.212-.55ZM72.765 92.1a1787.24 1787.24 0 0 0-4.365 9.881c-5.538 12.627-10.5 18.855-16.161 20.285l-2.504.632 2.983-.336c3.544-.399 3.537-.43.945 4.053-1.734 2.999-3.394 8.408-1.78 5.801.442-.714.58-.714.866.005.268.672.353.653.4-.086.052-.836.13-.836.704 0 .572.836.633.836.543 0-.266-2.488.1-2.81 1.43-1.254.736.862 1.177 1.119.98.57-.199-.549-.12-1.385.173-1.86.314-.508.248-1.206-.161-1.699-.524-.63-.417-1.099.432-1.902 1.07-1.011 1.11-.99.775.403-.347 1.443-.33 1.449.958.313 1.287-1.133 1.304-1.128.957.257-.569 2.266.424 1.161 4.935-5.495 2.333-3.445 4.474-6.263 4.756-6.263.73 0 .639 1.73-.114 2.195-.345.213-.628.634-.628.935 0 .301 1.483-.451 3.297-1.671s6.206-3.621 9.761-5.335c5-2.411 6.396-3.354 6.165-4.166-.63-2.204-2.132-11.178-2.217-13.244-.174-4.247-1.681-2.674-6.911 7.217-4.41 8.339-4.972 9.188-5.764 8.7-.303-.187.308-1.806 1.358-3.599 5.664-9.677 7.537-14.288 5.596-13.781-.723.188-1.731-.28-2.62-1.216-2.54-2.68-3.338-2.57-4.789.66Zm78.236 26.856c.432.174 1.138.174 1.57 0 .432-.174.078-.316-.785-.316-.864 0-1.217.142-.785.316Zm-1.6 4.444c1.748 2.514 2.777 5.173 2.002 5.173-.466 0-4.641-6.621-4.641-7.359 0-1.319.475-.925 2.639 2.186Zm-2.404-.189c1.274 1.942.198 2.743-1.134.844-.542-.772-.985-1.624-.985-1.892 0-1.001 1.145-.435 2.119 1.048Zm-49.82 2.279-2.171 1.043 3.233.692c2.307.494 4.259.503 6.816.031 1.972-.364 4.108-.525 4.748-.358.641.167 1.006.048.812-.264-.193-.313.301-.594 1.098-.623 1.262-.047 1.206-.134-.434-.673-3.34-1.098-11.685-1.008-14.103.152Zm-40.848-.05c0 1.214-3.61 6.404-4.008 5.762-.22-.357.379-1.932 1.333-3.501 1.664-2.738 2.675-3.592 2.675-2.261Zm36.307 1.68c.453.181.995.159 1.203-.049.209-.209-.162-.357-.824-.33-.731.031-.88.179-.38.379Zm-36.086 2.41c-.194.505-.594.769-.887.587-.294-.182-.377-.743-.183-1.247.194-.505.593-.769.887-.587.294.181.376.743.183 1.247Zm38.087 1.061c0 .711-.95 1.091-3.538 1.414-4.044.504-6.51 2.408-6.51 5.025 0 2.107-1.515 5.677-3.529 8.313-1.914 2.505-1.585 3.922.913 3.922 2.17 0 4.552-1.743 6.349-4.646 1.42-2.295 4.934-4.292 7.72-4.387 1.025-.035 1.633-.353 1.474-.771-.15-.391-.752-2.648-1.34-5.016-1.102-4.444-1.539-5.538-1.539-3.854Zm19.468 9.354c-3.626.563-5.789 1.057-4.804 1.097 3.015.12 6.116 2.027 8.353 5.135 2.301 3.198 3.119 3.715 5.886 3.715 2.655 0 2.798-.944.607-3.991-1.081-1.503-2.299-3.69-2.706-4.858l-.741-2.124-6.595 1.026Zm5.653 14.336c0 .409-9.851.627-28.298.627-18.705 0-28.166-.213-27.91-.627.535-.862 56.208-.862 56.208 0Zm20.096 0c0 .382-2.839.627-7.259.627-4.68 0-7.121-.223-6.871-.627.22-.356 3.356-.627 7.259-.627 4.162 0 6.871.247 6.871.627Z" clip-rule="evenodd"/>
  <path fill="#fff" fill-rule="evenodd" d="M.75 91.266v77.438h200.334V13.828H.75v77.438Zm129.37-61.83c0 .307-.76.75-1.689.982-7.07 1.772-9.151 10.482-3.655 15.3 8.481 7.435 19.888-4.621 12.163-12.856-.694-.74-.999-1.507-.678-1.705 3.197-1.972 5.682 8.489 3.109 13.082-6.083 10.856-23.05 2.755-18.628-8.894 1.478-3.897 9.378-8.874 9.378-5.909ZM70.293 33.93c3.41 1.187 7.963 7.814 7.948 11.564-.062 14.425-20.586 16.775-24.113 2.761-2.313-9.189 7.06-17.494 16.165-14.325Zm62.339 1.218c0 1.672.209 1.881 1.884 1.881 1.734 0 1.884.175 1.884 2.195s-.15 2.194-1.884 2.194c-1.659 0-1.884.217-1.884 1.813 0 1.607-.251 1.842-2.218 2.07-2.644.309-2.806.187-2.806-2.106 0-1.564-.231-1.777-1.922-1.777-1.837 0-1.914-.104-1.727-2.351.186-2.244.288-2.342 2.236-2.148 1.904.191 2.041.076 2.041-1.724 0-1.786.162-1.928 2.198-1.928 2.023 0 2.198.15 2.198 1.881Zm-70.774 3.108c-2.935 1.786-4.183 4.08-4.338 7.97-.37 9.305 14.248 10.58 16.708 1.458 1.947-7.22-6.022-13.293-12.37-9.428Zm4.833 4.103c0 .821.283 1.668.628 1.881.345.213.628.961.628 1.662 0 .702.585 2.019 1.301 2.927 2.066 2.622.45 2.27-2.52-.55-2.477-2.353-2.64-2.696-1.926-4.03.43-.8.59-1.766.356-2.144-.54-.873.174-2.079.948-1.6.322.198.585 1.032.585 1.854Zm40.281 6.683c2.957 2.252 5.061 6.906 7.531 16.66 1.983 7.83 2.206 8.337 3.992 9.072 4.26 1.753 6.918 5.207 12.593 16.356 3.022 5.938 6.443 12.283 7.601 14.1 1.159 1.818 2.107 3.551 2.107 3.852 0 .302.424.71.942.909 1.045.401 1.304 2.281.314 2.281-.346 0-.628-.262-.628-.582 0-.32-.398-.98-.884-1.465-1.645-1.642-5.214-7.638-8.811-14.802l-3.58-7.13-1.991 1.8c-1.096.99-2.091 2.019-2.212 2.284-.528 1.162-3.971 2.412-4.785 1.738-.941-.78-1.578.85-1.593 4.08-.005 1.052-.269 2.181-.588 2.509-.319.327-.659 1.943-.756 3.591l-.175 2.996 8.217 4.058c4.52 2.233 9.153 4.976 10.296 6.097 1.143 1.12 1.67 1.427 1.173.681-.498-.746-3.06-4.555-5.694-8.465-6.074-9.017-8.933-14.11-8.183-14.573.324-.2 1.798 1.68 3.275 4.178 3.937 6.654 9.238 14.415 14.345 21 4.244 5.474 6.312 7.625 4.124 4.291-.56-.855-.736-1.667-.405-1.871.322-.199 1.33.762 2.241 2.136 1.377 2.077 3.128 3.771 1.979 1.914a.695.695 0 0 1 .235-.952c.328-.202 1.099.484 1.715 1.525.616 1.04 1.327 1.892 1.581 1.892.253 0-.689-1.664-2.094-3.696-1.405-2.033-2.435-4.055-2.289-4.492.146-.438 1.451.872 2.9 2.912 1.449 2.04 2.635 3.509 2.635 3.266 0-.244-1.13-2.054-2.512-4.023-2.906-4.142-3.018-4.618-1.099-4.651 1.186-.021 1.086-.167-.625-.909-2.535-1.101-5.754-4.206-4.717-4.552.411-.136 1.503.452 2.427 1.308.925.856 2.983 1.891 4.575 2.301 1.591.41 3.267.858 3.724.996 1.789.538.431 2.446-1.966 2.762l-2.38.313 1.966 2.661c3.566 4.827.126 10.193-4.072 6.35-.328-.3-1.081-.546-1.675-.546-.592 0-1.657-.776-2.366-1.724l-1.289-1.725-.019 2.112c-.041 4.341-5.773 8.024-16.48 10.59-5.158 1.236-5.132 1.872.388 9.251 3.329 4.449-4.958 3.812-8.798-.676-4.393-5.133-5.433-5.52-13.464-5-5.699.368-6.767.29-7.079-.52-.8-2.081-6.362.7-8.585 4.291-2.249 3.633-7.544 5.422-9.408 3.18-.617-.743-.278-1.585 1.807-4.492 3.46-4.823 3.438-4.864-3.325-6.49-8.24-1.983-12.287-4.131-13.979-7.423l-1.344-2.614-1.7 2.226c-2.936 3.844-8.371 5.217-9.64 2.436-.998-2.186-.953-2.468.84-5.303 1.988-3.145 1.99-3.135-.591-3.135-4.278 0-3.4-2.334 1.386-3.688 5.963-1.686 15.777-17.453 20.929-33.62 1.29-4.046 5.74-9.323 9.338-11.074l3.43-1.669 1.07-8.503c1.451-11.554 3.616-16.063 8.712-18.15 2.469-1.012 9.233-.085 11.393 1.56ZM96.423 57.6c-.855.122-1.506.8-1.768 1.842-.228.908-.89 2.011-1.472 2.453-.96.727-.926.804.355.822 1.093.016 1.413.385 1.413 1.63 0 2.317 1.013 3.876 3.279 5.045 1.785.922 1.878 1.103.923 1.8-2.225 1.625-1.244 3.267 2.448 4.098 2.542.573 3.637-.413 3.05-2.746-.346-1.377-.656-1.549-2.225-1.236-2.165.433-2.515-.752-.41-1.39 2.588-.783 4.239-2.841 4.239-5.283 0-1.25.34-2.613.754-3.026.586-.585.534-.753-.235-.753-.577 0-1.133-.719-1.335-1.724-.349-1.743-3.623-2.299-9.016-1.532Zm4.356 5.608c.383 3.372.163 3.922-1.054 2.627-.877-.934-.68-5.606.237-5.606.263 0 .631 1.34.817 2.978Zm4.22-2.195c0 .431-.707.825-1.57.874-1.534.088-1.99-.403-1.151-1.24.724-.723 2.721-.454 2.721.366Zm-6.28.397c0 .305-.706.689-1.57.854-1.052.2-1.57.018-1.57-.554 0-.493.665-.854 1.57-.854.864 0 1.57.25 1.57.554Zm56.846 3.932c1.732.912 4.302 1.967 5.711 2.346l2.56.688-.126 5.176c-.312 12.739-9.395 21.844-15.845 15.883-8.469-7.83-10.935-20.004-4.442-21.934 1.837-.546 4.469-1.672 5.851-2.502 1.382-.83 2.653-1.465 2.826-1.412.173.054 1.732.844 3.465 1.755Zm-51.194.822c0 .505-.565 1.22-1.256 1.59-1.464.782-1.739-.133-.471-1.57 1.024-1.161 1.727-1.17 1.727-.02Zm49.126 9.896c-2.465 2.46-2.661 2.54-3.765 1.542-.841-.76-1.357-.863-1.849-.371-.493.492-.131 1.18 1.295 2.463l1.98 1.78 2.983-2.918c1.641-1.605 2.983-3.264 2.983-3.688 0-1.666-1.14-1.292-3.627 1.192ZM44.076 81.69c.971.605 1.393.605 2 0 3.316-3.312 9.854 1.849 7.864 6.205-4.34 9.502-17.602 8.01-17.602-1.98 0-4.178 4.166-6.453 7.738-4.226Zm28.363 10.438c-.716 1.596-2.675 6.03-4.353 9.855-5.538 12.627-10.5 18.855-16.161 20.285l-2.504.632 2.983-.336c3.57-.402 3.584-.319.756 4.364-1.223 2.025-2.125 3.781-2.003 3.903.121.122 1.052-1.178 2.068-2.886 1.752-2.947 2.79-3.881 2.79-2.515 0 .34-.848 1.994-1.884 3.675-2.814 4.566-2.25 4.783.656.254 2.604-4.059 3.506-4.866 2.915-2.607-.336 1.282-.315 1.286.967.156 1.287-1.133 1.304-1.128.957.257-.568 2.266.424 1.161 4.935-5.495 2.333-3.445 4.474-6.263 4.756-6.263.73 0 .639 1.73-.114 2.195-.345.213-.628.634-.628.935 0 .301 1.483-.451 3.297-1.671s6.206-3.621 9.761-5.335c5-2.411 6.396-3.354 6.165-4.166-.63-2.204-2.132-11.178-2.217-13.244-.174-4.247-1.681-2.674-6.911 7.217-4.41 8.339-4.972 9.188-5.764 8.7-.303-.187.308-1.806 1.357-3.599 1.05-1.792 3.034-5.457 4.41-8.144l2.502-4.885-1.917-.667c-1.054-.367-2.185-1.167-2.512-1.777-1.269-2.367-2.923-1.92-4.307 1.162Zm78.248 26.83c.432.174 1.138.174 1.57 0 .432-.174.078-.316-.785-.316-.864 0-1.217.142-.785.316Zm-4.004 4.255c1.274 1.942.198 2.743-1.134.844-.542-.772-.985-1.624-.985-1.892 0-1.001 1.145-.435 2.119 1.048Zm-49.82 2.279-2.171 1.043 3.212.687c2.504.537 4.364.485 8.45-.233 2.882-.506 5.522-.945 5.867-.975.346-.031-.219-.333-1.256-.674-3.34-1.098-11.685-1.008-14.103.152Zm-40.848 4.337c-.37.69-.53 1.254-.358 1.254.173 0 .616-.564.986-1.254.37-.69.53-1.254.358-1.254-.173 0-.616.564-.986 1.254Zm63.429 24.454c0 .409-9.851.627-28.298.627-18.705 0-28.166-.213-27.91-.627.535-.862 56.208-.862 56.208 0Zm20.096 0c0 .382-2.839.627-7.259.627-4.68 0-7.121-.223-6.871-.627.22-.356 3.356-.627 7.259-.627 4.162 0 6.871.247 6.871.627Z" clip-rule="evenodd"/>
  <path stroke="#000" d="M.82 0h196.36v168.704H.82z"/>
</svg>
